<?xml version="1.0" encoding="UTF-8" standalone="no"?>
<svg
   width="1024"
   height="1024"
   viewBox="0 0 1024 1024"
   version="1.1"
   id="svg50"
   sodipodi:docname="logo.svg"
   inkscape:version="1.4.3 (1:1.4.3+202512261034+0d15f75042)"
   inkscape:export-filename="logo.png"
   inkscape:export-xdpi="96"
   inkscape:export-ydpi="96"
   xmlns:inkscape="http://www.inkscape.org/namespaces/inkscape"
   xmlns:sodipodi="http://sodipodi.sourceforge.net/DTD/sodipodi-0.dtd"
   xmlns="http://www.w3.org/2000/svg"
   xmlns:svg="http://www.w3.org/2000/svg">
  <defs
     id="defs50" />
  <sodipodi:namedview
     id="namedview50"
     pagecolor="#ffffff"
     bordercolor="#666666"
     borderopacity="1.0"
     inkscape:showpageshadow="2"
     inkscape:pageopacity="0.0"
     inkscape:pagecheckerboard="0"
     inkscape:deskcolor="#d1d1d1"
     inkscape:zoom="0.78808594"
     inkscape:cx="512"
     inkscape:cy="512"
     inkscape:window-width="1860"
     inkscape:window-height="1016"
     inkscape:window-x="60"
     inkscape:window-y="27"
     inkscape:window-maximized="1"
     inkscape:current-layer="svg50" />
  <g
     id="g50"
     transform="translate(0,-26.336316)">
    <path
       fill="#017dfd"
       d="m 505.35006,365.89046 c 46.90257,-3.57846 94.41045,28.29218 109.37684,72.79337 4.72654,14.05615 10.05839,28.32421 15.26826,42.21415 l 39.08396,102.34649 c 41.52347,110.48529 83.82605,220.67479 126.90622,330.56088 -58.85006,0.48485 -117.70318,0.49552 -176.55325,0.0304 -11.87125,-30.16755 -25.46693,-69.26981 -36.02389,-100.10518 -20.07716,0.57785 -42.78439,0.0503 -63.07042,0.0488 -27.18068,0.007 -56.32975,0.39489 -83.37017,-0.52601 l -35.78147,101.03219 c -55.87845,0.0884 -116.27455,1.10082 -171.78249,-0.30341 C 260.75132,829.9838 294.7977,746.50081 325.7459,662.5543 l 52.7269,-140.9135 c 7.37798,-20.16863 14.88557,-40.28847 22.51971,-60.36104 7.53044,-20.1854 12.81198,-39.57948 27.14104,-56.3206 19.32852,-23.01522 47.22429,-37.1293 77.21651,-39.06871 z"
       id="path2"
       style="stroke-width:1.5247" />
    <path
       fill="#faf9f2"
       d="m 509.96378,579.42511 c 3.87729,4.8653 37.01647,96.19283 39.87679,105.6688 -9.88458,0.81723 -23.86143,0.45283 -34.07686,0.45741 -13.56367,0.12807 -27.12886,0.005 -40.68795,-0.37051 2.20471,-9.06124 5.77554,-18.8208 8.69076,-27.76616 5.11839,-16.03672 10.45939,-32.00177 16.02299,-47.89059 3.18507,-9.07343 7.86436,-20.99653 10.17427,-30.09895 z"
       id="path3"
       style="stroke-width:1.5247" />
    <path
       fill="#017dfd"
       d="m 507.94509,162.22513 c 25.3236,-1.93483 46.74705,6.31986 62.14797,27.13952 7.91925,10.70639 10.1575,20.24792 12.76472,32.9852 53.09587,-0.62971 106.19785,-0.6419 159.29526,-0.0382 26.41376,54.28971 53.12332,108.4361 80.12561,162.43612 9.59642,19.47337 20.00854,38.68601 28.94171,58.52074 l -10.95186,0.22108 c -34.13328,-69.19046 -71.11926,-140.7717 -103.54337,-210.37542 -7.88875,-1.65429 -39.66182,-0.99409 -49.67905,-0.98647 l -103.77816,0.0656 c -6.85349,36.08336 -29.10484,59.95852 -67.33345,60.25125 -34.98864,-1.50639 -60.04848,-25.83895 -64.2673,-60.26346 l -100.37201,-0.007 c -15.42226,0 -39.87832,0.66173 -54.81267,-0.52296 -5.48738,13.2206 -14.56387,30.01662 -21.06973,43.26009 -17.54006,35.40183 -35.35456,70.66796 -53.4435,105.79381 -6.91601,13.61245 -13.72376,27.27826 -20.42325,40.99897 -4.07094,8.25316 -10.46549,22.12176 -15.87358,29.04539 l -7.30022,-4.84699 c 35.60766,-74.66571 76.81246,-148.29003 112.31035,-223.65709 53.49991,-0.29732 107.00137,-0.29884 160.50128,-0.006 5.41114,-32.80223 23.31864,-53.84451 56.76125,-60.01341 z"
       id="path4"
       style="stroke-width:1.5247" />
    <path
       fill="#faf9f2"
       d="m 512.32858,171.60047 c 30.5228,-2.55691 57.35586,20.07257 59.98596,50.58929 2.62856,30.5167 -19.93993,57.40312 -50.44902,60.10336 -30.61125,2.70937 -57.60745,-19.94908 -60.24516,-50.56642 -2.63771,-30.61735 20.08477,-57.56018 50.70822,-60.12623 z"
       id="path5"
       style="stroke-width:1.5247" />
    <path
       fill="#017dfd"
       d="m 84.297183,522.14854 c 1.809801,-0.14332 5.379104,-0.11128 7.214834,-0.0488 19.243143,0.81418 37.371723,9.25031 50.384983,23.44672 13.10625,14.20555 19.98719,33.06294 19.10592,52.37165 -1.78542,40.30676 -37.47389,69.60676 -77.275983,67.43712 -21.414296,48.71392 -48.419644,101.0444 -67.752736,149.58146 22.155302,1.12064 190.867059,-1.23348 194.910539,1.95465 -0.22108,3.23844 0.18601,4.81802 -1.40424,7.30174 -6.05912,0.75778 -17.69862,0.33696 -24.20601,0.32476 l -43.11677,-0.0244 C 95.066084,824.47517 47.009307,824.91881 0,824.23269 L 48.811496,719.00149 C 56.788683,701.66727 66.799809,681.2928 73.275184,663.64602 61.041044,660.68203 51.540695,656.4449 41.659164,648.35946 27.520692,636.71081 18.5921,619.91938 16.838699,601.68559 15.01974,582.19087 20.987382,562.76934 33.439546,547.66269 46.879712,531.57262 63.759575,524.12603 84.297183,522.1485 Z"
       id="path6"
       style="stroke-width:1.5247" />
    <path
       fill="#017dfd"
       d="m 934.45026,522.95204 c 12.81199,-0.0198 25.41662,3.23692 36.61548,9.46072 16.44076,9.21677 28.44462,24.70306 33.27026,42.9216 4.9217,18.23685 2.4151,37.68125 -6.97085,54.07169 -12.0039,20.79527 -27.83325,30.29105 -50.16694,36.38983 11.06469,20.74344 20.49033,41.60731 30.6204,62.78224 L 1024,824.86548 814.0316,825.20396 c -1.95313,0.0823 -1.94399,0.2165 -3.70652,-0.53364 -1.41492,-2.28094 -0.77913,-6.10335 -0.64191,-8.97891 51.5834,1.49877 103.98096,-0.52449 155.62686,-0.10065 14.23909,0.11587 29.22835,-0.0534 43.42017,-0.64799 -3.3985,-7.5457 -6.9892,-15.16458 -10.70946,-22.55477 C 977.102,750.8371 958.32999,708.03593 936.68393,666.87992 837.63078,659.2092 845.17038,527.91338 934.45026,522.95203 Z"
       id="path7"
       style="stroke-width:1.5247" />
  </g>
</svg>
