<?xml version="1.0" encoding="UTF-8" standalone="no"?>
<svg
   width="1024"
   height="1024"
   viewBox="0 0 1024 1024"
   version="1.1"
   id="svg34"
   sodipodi:docname="logo.svg"
   inkscape:version="1.4.3 (1:1.4.3+202512261034+0d15f75042)"
   inkscape:export-filename="logo.png"
   inkscape:export-xdpi="96"
   inkscape:export-ydpi="96"
   xmlns:inkscape="http://www.inkscape.org/namespaces/inkscape"
   xmlns:sodipodi="http://sodipodi.sourceforge.net/DTD/sodipodi-0.dtd"
   xmlns="http://www.w3.org/2000/svg"
   xmlns:svg="http://www.w3.org/2000/svg">
  <defs
     id="defs34" />
  <sodipodi:namedview
     id="namedview34"
     pagecolor="#ffffff"
     bordercolor="#666666"
     borderopacity="1.0"
     inkscape:showpageshadow="2"
     inkscape:pageopacity="0.0"
     inkscape:pagecheckerboard="0"
     inkscape:deskcolor="#d1d1d1"
     inkscape:zoom="0.78808594"
     inkscape:cx="512"
     inkscape:cy="512"
     inkscape:window-width="1860"
     inkscape:window-height="1016"
     inkscape:window-x="60"
     inkscape:window-y="27"
     inkscape:window-maximized="1"
     inkscape:current-layer="svg34"
     showguides="false" />
  <g
     id="g34"
     transform="matrix(1.5539481,0,0,1.5539481,-284.30662,-284.56594)">
    <path
       fill="#1ba652"
       d="m 204.581,200.752 c 19.482,-0.525 39.92,-0.113 59.484,-0.106 l 94.752,-0.145 50.176,-0.126 c 15.057,-0.072 30.573,-0.572 45.482,1.721 23.337,3.773 45.756,11.903 66.087,23.965 41.312,24.739 73.444,64.336 85.253,111.384 27.506,-0.258 54.804,4.794 80.396,14.88 53.29,21.759 95.951,63.506 118.857,116.313 21.173,49.698 23.902,106.962 5.899,157.447 -4.644,13.022 -9.9,24.266 -15.186,36.89 -7.155,17.089 -13.146,34.54 -21.341,51.23 -14.998,33.73 -28.205,68.232 -42.079,102.432 l -3.236,8.299 c -4.223,-3.136 -10.733,-6.903 -15.391,-9.906 l -35.497,-22.926 c -9.051,-5.887 -18.072,-11.821 -27.062,-17.8 -5.035,-3.399 -10.283,-7.5 -15.489,-10.406 -12.102,0.859 -20.537,2.406 -33.358,2.347 -45.725,-0.202 -90.052,-15.785 -125.846,-44.24 -46.033,-36.842 -71.771,-86.99 -78.216,-145.227 -8.482,6.515 -17.21,12.715 -25.722,19.205 -9.834,7.499 -19.448,15.418 -29.356,22.798 l -33.749,25.595 c -5.059,3.892 -9.946,7.338 -14.816,11.502 -4.744,-27.772 -10.548,-55.295 -15.634,-83.002 -3.679,-20.046 -7.343,-40.133 -11.587,-60.064 -27.216,-21.635 -47.86,-54.111 -57.446,-87.55 -3.921,-13.794 -6.364,-27.965 -7.288,-42.274 -0.712,-10.493 -0.553,-21.479 -0.585,-32.034 l -0.067,-45.842 0.092,-61.954 c -0.001,-5.478 -0.597,-39.221 0.966,-42.023 z"
       id="path2" />
    <path
       fill="#f8fefd"
       d="m 213.573,211.997 c 50.869,-0.58 103.055,-0.271 153.971,-0.175 l 45.832,-0.258 c 19.805,-0.067 32.057,-1.001 51.735,3.744 36.706,8.65 69.67,28.843 94.053,57.611 3.872,4.632 7.904,9.472 11.055,14.629 2.865,3.687 5.024,7.647 7.487,10.835 l 0.365,-0.707 c 1.289,1.538 6.619,12.008 7.56,14.053 12.55,27.646 17.761,58.06 15.129,88.307 -0.674,6.928 -1.8,13.804 -3.372,20.585 -0.924,3.866 -2.918,8.449 -3.163,12.184 l 0.411,0.432 0.918,-0.332 3.717,1.327 c 0.611,-1.366 0.22,-1.19 1.167,-1.76 l 0.323,1.268 1.05,-2.864 c 0.651,1.058 0.485,0.678 0.784,1.848 -1.054,1.443 -1.04,2.921 -0.257,4.496 l 0.112,-0.534 c 0.343,-1.575 0.344,-1.871 1.046,-3.276 1.108,-2.217 1.379,-5.925 2.094,-8.32 5.318,-17.827 5.845,-37.686 4.801,-56.181 -0.298,-5.284 -2.083,-16.092 -1.862,-20.581 4.173,22.585 3.996,48.226 -0.498,70.763 -1.141,5.722 -6.193,20.852 -6.53,25.09 -1.147,2.908 -2.281,5.925 -3.556,8.771 -0.433,0.819 -1.716,3.359 -2.171,3.98 -16.714,35.91 -50.441,68.448 -85.851,85.88 -3.118,1.115 -5.223,2.592 -8.092,3.884 -2,0.884 -4.145,1.765 -6.046,2.821 -5.674,1.964 -14.768,5.492 -20.271,6.729 2.225,-1.747 18.117,-6.489 22.65,-8.587 14.884,-6.968 29.024,-15.426 42.202,-25.245 4.588,-3.385 21.124,-16.277 21.838,-21.005 l -1.603,0.968 -0.339,-0.387 c 0.804,-1.166 1.056,-1.226 1.316,-2.486 -1.433,1.139 -2.362,1.374 -3.912,0.514 -0.608,-1.777 0.473,-2.547 0.464,-4.778 -1.099,0.02 -2.013,0.584 -2.81,1.334 -7.64,7.191 -16.41,16.253 -25.458,21.754 l -0.628,0.374 c -2.328,1.973 -17.296,11.897 -20.048,13.366 l -0.402,1.105 0.825,1.482 c -1.713,0.564 -2.451,0.176 -4.204,-0.283 -4.342,1.176 -12.374,5.162 -16.996,7.018 -10.556,4.216 -21.464,7.49 -32.597,9.785 -9.404,1.878 -17.736,3.204 -27.275,3.783 -4.284,0.259 -17.024,-0.19 -19.7,1.38 -8.56,5.021 -16.553,12.493 -24.757,18.255 l -0.741,-0.46 c -3.402,2.211 -9.029,6.77 -12.374,9.319 l -24.83,19.044 c -14.317,11.039 -29.94,22.105 -43.799,33.349 -2.33,-9.76 -4.421,-22.727 -6.362,-32.771 l -11.788,-61.203 c -1.687,-9.04 -3.569,-24.796 -6.752,-32.986 -1.332,-3.427 -13.885,-13.746 -17.376,-17.443 -26.288,-27.835 -41.361,-62.562 -45.586,-100.463 -1.111,-9.969 -0.842,-20.575 -0.856,-30.383 l 0.073,-44.597 z"
       id="path3" />
    <path
       fill="#0a8848"
       d="m 577.706,298.383 0.365,-0.707 c 1.289,1.538 6.619,12.008 7.56,14.053 12.55,27.646 17.761,58.06 15.129,88.307 -0.674,6.928 -1.8,13.804 -3.372,20.585 -0.924,3.866 -2.918,8.449 -3.163,12.184 l 0.411,0.432 0.918,-0.332 3.717,1.327 c 0.611,-1.366 0.22,-1.19 1.167,-1.76 l 0.323,1.268 1.05,-2.864 c 0.651,1.058 0.485,0.678 0.784,1.848 -1.054,1.443 -1.04,2.921 -0.257,4.496 l 0.112,-0.534 c 0.343,-1.575 0.344,-1.871 1.046,-3.276 1.108,-2.217 1.379,-5.925 2.094,-8.32 5.318,-17.827 5.845,-37.686 4.801,-56.181 -0.298,-5.284 -2.083,-16.092 -1.862,-20.581 4.173,22.585 3.996,48.226 -0.498,70.763 -1.141,5.722 -6.193,20.852 -6.53,25.09 -1.147,2.908 -2.281,5.925 -3.556,8.771 -0.433,0.819 -1.716,3.359 -2.171,3.98 -16.714,35.91 -50.441,68.448 -85.851,85.88 -3.118,1.115 -5.223,2.592 -8.092,3.884 -2,0.884 -4.145,1.765 -6.046,2.821 -5.674,1.964 -14.768,5.492 -20.271,6.729 2.225,-1.747 18.117,-6.489 22.65,-8.587 14.884,-6.968 29.024,-15.426 42.202,-25.245 4.588,-3.385 21.124,-16.277 21.838,-21.005 l -1.603,0.968 -0.339,-0.387 c 0.804,-1.166 1.056,-1.226 1.316,-2.486 -1.433,1.139 -2.362,1.374 -3.912,0.514 -0.608,-1.777 0.473,-2.547 0.464,-4.778 -1.099,0.02 -2.013,0.584 -2.81,1.334 -7.64,7.191 -16.41,16.253 -25.458,21.754 l -0.628,0.374 c -2.328,1.973 -17.296,11.897 -20.048,13.366 l -0.402,1.105 0.825,1.482 c -1.713,0.564 -2.451,0.176 -4.204,-0.283 -4.342,1.176 -12.374,5.162 -16.996,7.018 -10.556,4.216 -21.464,7.49 -32.597,9.785 -9.404,1.878 -17.736,3.204 -27.275,3.783 -4.284,0.259 -17.024,-0.19 -19.7,1.38 -8.56,5.021 -16.553,12.493 -24.757,18.255 l -0.741,-0.46 c 2.179,-2.495 22.59,-17.939 26.666,-19.071 3.112,-0.865 11.027,-0.739 14.897,-0.877 5.22,-0.174 10.43,-0.578 15.615,-1.213 25.917,-3.552 50.905,-12.068 73.597,-25.084 4.58,-2.646 9.348,-6.489 14.158,-9.388 1.955,-1.875 5.368,-4.274 7.587,-5.951 35.34,-26.713 59.808,-67.714 63.949,-112.149 2.622,-28.146 -2.404,-64.664 -15.91,-89.98 -1.273,-3.219 -4.505,-8.473 -6.192,-12.037 z"
       id="path4" />
    <path
       fill="#f5f9f4"
       d="m 570.219,287.548 c 2.865,3.687 5.024,7.647 7.487,10.835 1.687,3.564 4.919,8.818 6.192,12.037 -0.955,-0.189 -2.834,-0.799 -3.209,-1.676 -1.948,-4.559 -10.481,-17.148 -10.47,-21.196 z"
       id="path5" />
    <path
       fill="#0a8848"
       d="m 394.893,318.37 c 0.091,-5.418 -1.568,-14.533 2.901,-18.328 5.208,-4.423 12.615,-3.135 18.662,-3.299 16.069,-0.434 9.82,17.25 13.118,20.998 1.756,0.819 2.134,0.69 4.032,0.612 4.495,-2.331 5.098,-14.572 12.745,-14.177 6.816,0.353 16.002,5.357 20.874,9.882 l 1.865,2.876 c 2.8,8.972 -1.841,10.373 -5.054,18.161 1.196,1.43 2.477,3.036 3.716,4.406 5.726,-3.691 8.36,-5.611 14.814,-7.407 1.79,0.625 4.206,1.437 5.558,2.634 5.355,4.741 12.719,14.037 10.066,21.547 -1.564,4.431 -9.032,9.363 -12.8,12.185 0.11,1.807 0.175,3.883 0.472,5.647 18.916,0.58 22.496,2.247 21.506,21.885 -0.948,18.807 -19.682,7.178 -22.331,16.053 0.764,2.943 8.27,7.28 11.972,12.084 0.988,0.404 1.517,0.55 2.577,0.672 2.778,4.521 -3.75,15.048 -6.407,18.897 -1.616,0.676 -1.166,0.073 -2.586,0.197 -11.444,12.19 -18.824,-0.765 -23.902,-0.435 -4.617,3.894 5.287,13.238 3.399,19.574 -1.743,4.726 -7.522,8.515 -11.697,10.835 -14.239,7.913 -17.471,-0.766 -23.09,-11.652 -1.856,0.683 -3.723,1.417 -5.572,2.124 -0.316,4.141 0.255,11.014 -1.547,14.781 -4.429,8.118 -19.866,8.257 -27.127,4.852 -7.956,-3.73 -2.243,-18.684 -8.33,-21.797 -4.799,1.13 -7.972,14.408 -14.94,14.772 -6.524,0.341 -12.771,-2.821 -17.725,-6.6 -10.838,-8.266 0.45,-15.876 0.33,-25.41 -0.024,-0.996 -0.77,-1.591 -1.573,-2.071 -4.225,0.885 -8.235,3.869 -12.512,5.032 -10.359,2.816 -17.962,-9.878 -19.734,-18.47 -1.445,-7.005 8.281,-10.182 11.43,-15.04 1.449,-2.236 0.978,-2.794 0.397,-5.412 l -0.165,-0.721 c -4.454,-0.592 -12.907,-1.292 -16.358,-3.66 -6.155,-4.226 -5.82,-21.512 -1.614,-26.922 2.944,-3.788 12.436,-3.885 17.055,-4.551 0.841,-3.343 1.929,-4.972 -0.25,-7.856 -4.337,-0.603 -14.157,-7.538 -13.674,-12.302 1.167,-1.831 0.389,-1.098 2.642,-2.012 1.611,-4.54 3.325,-7.467 5.93,-11.166 9.887,-14.036 21.787,-1.699 26.551,-2.373 5.281,-5.065 -14.011,-16.997 4.921,-27.708 16.02,-9.064 17.712,-4.759 26.508,9.252 1.648,-0.208 3.297,-0.405 4.947,-0.589 z"
       id="path6" />
    <path
       fill="#ebfefa"
       d="m 497.009,424.129 c 0.988,0.404 1.517,0.55 2.577,0.672 2.778,4.521 -3.75,15.048 -6.407,18.897 -1.616,0.676 -1.166,0.073 -2.586,0.197 4.222,-5.904 9.447,-12.311 6.416,-19.766 z"
       id="path7" />
    <path
       fill="#ebfefa"
       d="m 337.068,365.268 c -4.337,-0.603 -14.157,-7.538 -13.674,-12.302 1.167,-1.831 0.389,-1.098 2.642,-2.012 0.271,7.651 6.645,9.606 11.032,14.314 z"
       id="path8" />
    <path
       fill="#f8fefd"
       d="m 404.943,306.556 c 4.12,-0.176 8.488,-0.059 12.63,-0.019 0.498,5.186 1.318,14.272 1.188,19.332 7.208,1.617 12.793,2.981 19.7,5.556 3.118,-5.732 6.355,-11.4 9.706,-17 4.094,1.956 7.404,3.669 11.357,5.894 l -1.83,4.131 c -1.24,2.506 -5.646,11.812 -6.951,13.61 6.06,5.185 9.219,8.42 14.736,14.329 5.35,-3.067 10.436,-7.146 15.68,-9.679 l 0.646,-0.319 c 0.131,-0.061 0.261,-0.123 0.392,-0.184 2.365,3.488 4.753,7.112 7.176,10.546 -5.773,3.708 -11.566,7.384 -17.38,11.027 3.128,7.685 4.142,12.423 5.86,20.419 5.519,0.213 14.186,0.177 19.327,0.91 0.417,4.197 0.22,8.364 -0.246,12.554 -6.478,0.239 -13.14,0.248 -19.534,0.528 -1.299,7.561 -2.215,12.493 -5.296,19.682 4.835,3.247 11.923,7.246 16.209,10.451 -1.834,4.064 -3.359,7.364 -6.127,10.919 -4.64,-2.385 -13.189,-7.607 -17.108,-9.303 -3.841,4.249 -9.122,9.799 -13.793,13.188 2.45,4.44 5.315,9.763 7.022,14.53 0.673,1.213 0.639,1.236 0.955,2.604 -0.918,2.783 -6.421,5.306 -9.077,6.995 -3.692,-4.672 -8.407,-12.734 -11.563,-17.928 -7.259,3.084 -10.278,4.122 -18.049,5.038 -0.784,7.014 -1.259,13.976 -1.774,21.014 -3.945,0.575 -8.554,0.819 -12.573,1.128 -0.195,-6.786 -0.722,-14.014 -1.109,-20.827 -7.823,-1.462 -11.502,-2.884 -18.909,-5.641 -3.391,5.573 -6.665,11.216 -9.82,16.926 -3.969,-1.2 -6.994,-2.758 -10.638,-4.673 2.648,-8.253 4.937,-12.038 9.038,-19.671 -6.306,-4.696 -9.706,-7.82 -15.107,-13.543 -5.956,3.013 -11.361,6.806 -17.532,9.736 -2.281,-3.54 -3.729,-6.35 -5.658,-10.121 4.774,-4.069 10.534,-7.912 15.7,-11.548 -2.508,-6.757 -3.834,-11.975 -5.308,-19.035 -6.303,-0.295 -12.875,-0.477 -19.122,-1.213 -0.337,-16.761 4.531,-12.883 19.268,-13.911 1.482,-6.663 3.16,-13.28 5.034,-19.844 -5.537,-3.916 -10.518,-7.351 -15.404,-12.109 1.528,-3.139 3.459,-5.838 5.405,-8.732 5.189,1.948 12.26,6.201 17.223,9.01 5.399,-6.66 7.864,-8.337 14.544,-13.602 -3.679,-6.255 -6.43,-10.735 -8.936,-17.6 3.827,-2.056 6.023,-3.162 10.046,-4.727 3.861,5.013 7.27,10.276 11.308,15.405 7.207,-2.575 11.695,-3.614 19.079,-5.083 -0.389,-6.359 -0.346,-12.776 -0.385,-19.15 z"
       id="path9" />
    <path
       fill="#ebfefa"
       d="m 447.359,444.958 c 1.059,-0.57 2.785,-1.305 3.926,-1.83 2.45,4.44 5.315,9.763 7.022,14.53 -3.301,-1.644 -7.4,-8.951 -10.948,-12.7 z"
       id="path10" />
    <path
       fill="#f5f9f4"
       d="m 450.743,338.06 -0.739,-1.57 c 0.278,-2.327 1.001,-4.578 2.129,-6.632 1.871,-3.424 2.251,-4.438 5.561,-5.408 -1.24,2.506 -5.646,11.812 -6.951,13.61 z"
       id="path11" />
    <path
       fill="#0a8848"
       d="m 410.183,353.152 c 20.702,-1.425 38.664,14.145 40.191,34.84 1.527,20.694 -13.955,38.732 -34.642,40.361 -20.83,1.64 -39.022,-13.974 -40.559,-34.812 -1.538,-20.839 14.165,-38.953 35.01,-40.389 z"
       id="path12" />
    <path
       fill="#f8fefd"
       d="m 407.792,364.267 c 14.678,-2.76 28.791,6.977 31.421,21.679 2.63,14.702 -7.231,28.728 -21.956,31.228 -14.541,2.469 -28.355,-7.243 -30.953,-21.762 -2.598,-14.519 6.992,-28.419 21.488,-31.145 z"
       id="path13" />
    <path
       fill="#fefefe"
       d="m 467.225,314.058 c 7.825,-8.393 15.62,-15.956 24.11,-23.683 2.886,-2.627 9.826,-10.341 12.498,-11.892 l 0.634,0.126 0.096,0.952 c -8.865,9.201 -17.557,18.511 -26.752,27.407 -2.636,2.55 -6.541,8.684 -8.721,9.966 z"
       id="path14" />
    <path
       fill="#05b14a"
       d="m 608.529,348.328 c 4.52,-3.444 38.223,3.22 45.176,4.83 43.422,10.055 87.573,38.079 114.642,73.757 33.93,44.289 48.793,100.282 41.295,155.568 -7.421,52.092 -29.42,94.607 -71.975,126.15 -45.666,33.849 -99.418,51.671 -156.406,45.214 -74.967,-8.494 -139.727,-59.532 -162.606,-131.86 -5.165,-16.328 -9.707,-36.244 -10.283,-53.162 2.157,-2.026 2.941,-2.674 5.409,-4.295 18.78,-0.213 33.339,-0.444 51.552,-5.515 2.344,-0.653 8.257,-1.758 10.181,-2.769 5.503,-1.237 14.597,-4.765 20.271,-6.729 1.901,-1.056 4.046,-1.937 6.046,-2.821 2.869,-1.292 4.974,-2.769 8.092,-3.884 35.41,-17.432 69.137,-49.97 85.851,-85.88 0.455,-0.621 1.738,-3.161 2.171,-3.98 1.275,-2.846 2.409,-5.863 3.556,-8.771 0.337,-4.238 5.389,-19.368 6.53,-25.09 4.494,-22.537 4.671,-48.178 0.498,-70.763 z"
       id="path15" />
    <path
       fill="#f8fefd"
       d="m 622.105,473.063 c 3.157,-6.543 4.913,-12.818 9.216,-18.722 4.174,-5.726 14.353,-3.745 15.503,2.769 1.027,5.817 -0.983,15.704 -2.011,21.696 7.052,2.682 11.262,5.062 17.59,9.27 5.756,-4.336 15.201,-12.032 21.524,-14.687 2.103,1.579 3.916,2.82 5.727,4.743 0.05,1.991 0.319,2.423 1.228,4.208 -0.562,7.357 -8.707,9.656 -8.612,18.613 -0.39,0.663 -1.435,2.092 -1.187,2.538 3.064,5.506 7.282,12.619 10.168,18.089 8.088,-1.508 26.022,-8.435 28.2,4.436 0.44,2.602 0.651,5.128 -0.042,7.69 -2.548,4.985 -12.704,8.358 -17.876,9.061 -1.589,0.595 -2.82,0.793 -3.664,2.184 -0.345,6.853 0.359,14.358 0.138,21.692 2.467,0.873 6.175,2.077 8.463,3.088 1.796,1.41 12.164,7.685 14.214,8.431 -0.526,3.529 -1.612,9.367 -4.442,11.914 -1.49,1.342 -7.107,2.209 -9.165,1.837 l -1.159,0.593 c -4.996,-1.102 -9.38,-2.184 -14.508,-2.592 -1.247,2.513 -9.255,16.397 -9.173,17.432 l 0.419,0.584 c 3.475,3.116 14.232,14.266 14.455,18.912 0.352,7.337 -11.095,17.024 -17.671,9.206 -5.21,-3.273 -8.24,-8.997 -15.093,-12.509 -6.938,6.164 -9.602,7.433 -18.271,10.955 1.592,6.44 3.869,13.996 4.066,20.193 0.312,9.844 -13.008,11.111 -18.999,7.138 -2.519,-1.671 -6.56,-18.686 -7.639,-21.95 -4.995,0.314 -16.743,1.101 -21.225,-0.232 l -1.275,-0.27 c -6.772,4.442 1.117,24.416 -24.321,18.573 -0.604,-0.136 -1.202,-0.295 -1.793,-0.477 -0.361,-5.021 1.503,-13.283 2.518,-18.46 0.497,-1.587 0.597,-1.577 0.488,-3.201 -2.205,-3.607 -7.485,-5.063 -11.469,-7.709 l -0.451,-0.306 c -2.478,-1.127 -3.393,-1.998 -5.505,-3.666 -3.565,3.308 -15.748,15.977 -20.708,16.399 -0.767,0.065 -4.225,-1.663 -5.208,-2.141 -0.412,-0.924 -7.331,-7.97 -7.289,-9.899 0.078,-3.666 5.996,-9.945 8.31,-12.558 l 0.569,-0.493 c 2.36,-3.14 3.981,-5.698 5.472,-9.329 -1.772,-1.59 -8.44,-12.918 -10.572,-16.056 -8.228,1.978 -14.911,3.881 -23.441,4.251 -3.363,-4.814 -8.089,-13.793 -2.492,-18.375 2.866,-2.003 12.023,-6.452 15.523,-8.217 l 3.421,-2.74 c -0.891,-5.24 -0.665,-12.286 -0.508,-17.68 -2.917,-2.172 -6.66,-3.097 -10.16,-3.876 l -3.465,-0.601 c 35.41,-17.432 69.137,-49.97 85.851,-85.88 3.073,5.228 5.604,10.862 7.904,16.47 6.485,-0.692 12.345,0.084 18.427,-0.339 z"
       id="path16" />
    <path
       fill="#f5f9f4"
       d="m 682.656,607.93 c 3.475,3.116 14.232,14.266 14.455,18.912 0.352,7.337 -11.095,17.024 -17.671,9.206 3.272,0.397 6.335,4.348 10.311,0.17 -2.593,-0.426 -4.822,-0.609 -7.422,-0.829 l -0.105,-0.47 c 1.181,-0.452 2.004,-0.701 3.209,-1.058 1.583,0.502 1.945,0.713 3.638,0.581 2.038,-1.098 2.742,-2.233 4.206,-4.002 l 1.104,-5.972 c -3.666,-4.214 -11.248,-11.641 -11.725,-16.538 z"
       id="path17" />
    <path
       fill="#f5f9f4"
       d="m 565.976,627.793 c 5.093,-0.324 14.244,4.402 16.322,9.07 -0.387,2.831 -2.483,2.328 -4.89,2.146 0.497,-1.587 0.597,-1.577 0.488,-3.201 -2.205,-3.607 -7.485,-5.063 -11.469,-7.709 z"
       id="path18" />
    <path
       fill="#f5f9f4"
       d="m 719.409,533.706 c -2.548,4.985 -12.704,8.358 -17.876,9.061 2.298,-5.981 7.144,-1.598 10.838,-5.926 0.726,-0.851 0.803,-1.081 1.668,-1.852 3.862,-0.422 2.166,0.812 5.37,-1.283 z"
       id="path19" />
    <path
       fill="#f5f9f4"
       d="m 520.635,567.709 c -1.697,2.313 -4.429,3.542 -7.024,4.85 -0.911,1.588 -1.592,3.281 -3.189,4.014 -2.781,0.186 -2.91,-0.401 -5.31,-0.647 2.866,-2.003 12.023,-6.452 15.523,-8.217 z"
       id="path20" />
    <path
       fill="#f5f9f4"
       d="m 541.617,606.106 1.35,0.542 c 0.814,3.441 -3.25,9.018 -6.822,8.787 2.36,-3.14 3.981,-5.698 5.472,-9.329 z"
       id="path21" />
    <path
       fill="#1bbd92"
       d="m 606.17,508.463 c 24.471,-2.973 46.735,14.413 49.782,38.876 3.046,24.462 -14.273,46.779 -38.726,49.899 -24.558,3.133 -46.99,-14.276 -50.05,-38.843 -3.059,-24.567 14.418,-46.947 38.994,-49.932 z"
       id="path22" />
    <path
       fill="#1ba652"
       d="m 608.896,514.479 c 21.265,-1.464 39.661,14.653 41.006,35.926 1.346,21.273 -14.874,39.579 -36.154,40.806 -21.113,1.217 -39.244,-14.848 -40.579,-35.954 -1.335,-21.105 14.629,-39.326 35.727,-40.778 z"
       id="path23" />
    <path
       fill="#05b14a"
       d="m 607.774,519.846 c 18.345,-2.091 34.905,11.102 36.967,29.451 2.061,18.348 -11.158,34.887 -29.509,36.92 -18.311,2.028 -34.806,-11.155 -36.863,-29.463 -2.057,-18.307 11.101,-34.823 29.405,-36.908 z"
       id="path24" />
    <path
       fill="#1bbd92"
       d="m 632.558,443.581 c 14.938,-0.683 27.441,7.173 21.885,22.865 -0.723,2.039 -1.272,5.182 -1.672,7.369 1.067,0.94 6.785,6.274 8.049,5.897 8.053,-2.399 13.223,-11.309 21.91,-12.919 9.81,-1.818 15.553,10.388 17.083,18.273 -2.077,7.188 -5.809,10.322 -10.873,15.868 1.265,4.88 2.195,9.151 5.963,12.799 6.652,-0.89 18.659,-3.751 24.05,0.683 6.494,5.34 10.902,18.531 4.49,25.507 -4.69,5.103 -12.645,5.993 -18.862,8.32 -0.041,2.35 -0.836,12.666 0.861,13.826 9.68,6.613 21.905,2.523 22.566,18.947 0.424,10.548 -5.01,19.466 -16.841,19.075 -2.011,-0.066 -7.438,-0.218 -9.106,-0.99 -1.945,0.426 -3.141,0.625 -5.12,0.836 -0.984,1.425 -1.408,1.782 -1.506,3.522 l -0.816,0.888 -0.779,-1.015 c -1.498,0.201 -0.916,-0.134 -1.852,0.952 -0.462,4.723 0.643,3.839 1.904,7.18 12.568,14.449 13.184,18.79 -0.473,33.366 -2.243,0.289 -5.593,1.025 -7.736,0.816 -9.317,-0.908 -14.357,-9.228 -21.986,-13.648 -4.569,2.629 -6.13,3.855 -9.551,7.856 0.914,6.74 4.897,18.666 0.401,24.396 -5.5,7.01 -19.92,8.453 -27.014,3.189 -5.379,-4.218 -5.881,-13.749 -8.127,-19.941 -3.945,0.03 -8.153,-0.016 -12.072,0.122 -5.179,11.306 -5.73,25.194 -22.381,23.387 -8.814,-0.956 -14.177,-5.106 -16.447,-13.867 -2.106,-6.579 0.953,-11.22 -0.038,-15.458 -9.611,-5.672 -9.764,-0.859 -15.384,5.989 l 0.506,0.422 c -17.64,14.532 -42.433,-8.936 -35.945,-28.34 1.494,-4.469 9.733,-10.655 8.434,-14.236 -4.499,-2.021 -21.98,7.563 -30.175,-7.375 -10.438,-19.028 -4.876,-29.441 14.385,-38.323 0.988,-0.456 1.412,-1.338 1.561,-2.337 -2.942,-3.455 -10.368,-4.382 -15.455,-7.574 l -0.61,-0.391 c 1.901,-1.056 4.046,-1.937 6.046,-2.821 2.869,-1.292 4.974,-2.769 8.092,-3.884 l 3.465,0.601 c 3.5,0.779 7.243,1.704 10.16,3.876 -0.157,5.394 -0.383,12.44 0.508,17.68 l -3.421,2.74 c -3.5,1.765 -12.657,6.214 -15.523,8.217 -5.597,4.582 -0.871,13.561 2.492,18.375 8.53,-0.37 15.213,-2.273 23.441,-4.251 2.132,3.138 8.8,14.466 10.572,16.056 -1.491,3.631 -3.112,6.189 -5.472,9.329 l -0.569,0.493 c -2.314,2.613 -8.232,8.892 -8.31,12.558 -0.042,1.929 6.877,8.975 7.289,9.899 0.983,0.478 4.441,2.206 5.208,2.141 4.96,-0.422 17.143,-13.091 20.708,-16.399 2.112,1.668 3.027,2.539 5.505,3.666 l 0.451,0.306 c 3.984,2.646 9.264,4.102 11.469,7.709 0.109,1.624 0.009,1.614 -0.488,3.201 -1.015,5.177 -2.879,13.439 -2.518,18.46 0.591,0.182 1.189,0.341 1.793,0.477 25.438,5.843 17.549,-14.131 24.321,-18.573 l 1.275,0.27 c 4.482,1.333 16.23,0.546 21.225,0.232 1.079,3.264 5.12,20.279 7.639,21.95 5.991,3.973 19.311,2.706 18.999,-7.138 -0.197,-6.197 -2.474,-13.753 -4.066,-20.193 8.669,-3.522 11.333,-4.791 18.271,-10.955 6.853,3.512 9.883,9.236 15.093,12.509 6.576,7.818 18.023,-1.869 17.671,-9.206 -0.223,-4.646 -10.98,-15.796 -14.455,-18.912 l -0.419,-0.584 c -0.082,-1.035 7.926,-14.919 9.173,-17.432 5.128,0.408 9.512,1.49 14.508,2.592 l 1.159,-0.593 c 2.058,0.372 7.675,-0.495 9.165,-1.837 2.83,-2.547 3.916,-8.385 4.442,-11.914 -2.05,-0.746 -12.418,-7.021 -14.214,-8.431 -2.288,-1.011 -5.996,-2.215 -8.463,-3.088 0.221,-7.334 -0.483,-14.839 -0.138,-21.692 0.844,-1.391 2.075,-1.589 3.664,-2.184 5.172,-0.703 15.328,-4.076 17.876,-9.061 0.693,-2.562 0.482,-5.088 0.042,-7.69 -2.178,-12.871 -20.112,-5.944 -28.2,-4.436 -2.886,-5.47 -7.104,-12.583 -10.168,-18.089 -0.248,-0.446 0.797,-1.875 1.187,-2.538 -0.095,-8.957 8.05,-11.256 8.612,-18.613 -0.909,-1.785 -1.178,-2.217 -1.228,-4.208 -1.811,-1.923 -3.624,-3.164 -5.727,-4.743 -6.323,2.655 -15.768,10.351 -21.524,14.687 -6.328,-4.208 -10.538,-6.588 -17.59,-9.27 1.028,-5.992 3.038,-15.879 2.011,-21.696 -1.15,-6.514 -11.329,-8.495 -15.503,-2.769 -4.303,5.904 -6.059,12.179 -9.216,18.722 -6.082,0.423 -11.942,-0.353 -18.427,0.339 -2.3,-5.608 -4.831,-11.242 -7.904,-16.47 0.455,-0.621 1.738,-3.161 2.171,-3.98 1.973,1.879 4.659,6.985 5.661,9.573 2.239,5.781 8.734,4.232 13.929,3.841 l 0.381,-0.59 c 5.697,-8.916 5.653,-16.763 14.642,-22.195 z"
       id="path25" />
    <path
       fill="#0bb759"
       d="m 495.785,549.517 c 1.901,-1.056 4.046,-1.937 6.046,-2.821 4.435,2.385 9.78,2.878 15.132,5.655 l 0.308,8.996 c -6.526,6.461 -22.216,9.783 -21.247,19.664 2.395,24.421 15.778,21.9 32.47,16.749 1.041,3.507 2.711,8.366 3.354,11.995 0.307,1.729 -3.672,5.823 -5.266,6.871 0.034,-1.491 4.235,-5.082 4.237,-6.165 0.006,-2.527 -1.901,-9.584 -2.718,-11.793 -6.833,1.785 -18.258,5.32 -24.331,1.58 -6.258,-3.853 -10.882,-19.695 -6.436,-25.963 2.606,-3.675 9.221,-5.746 11.935,-8.98 l -0.439,-0.588 c 0.854,-1.039 0.778,-1.01 1.946,-1.654 0.947,-1.586 1.211,-1.84 1.417,-3.721 -1.03,0.584 -0.798,0.551 -1.634,1.236 -4.122,3.379 -10.129,4.984 -13.982,8.653 -10.616,10.11 -1.837,36.817 13.579,36.633 4.928,-0.058 9.782,-0.465 14.509,-1.88 0.854,-0.244 1.707,0.544 2.371,1.043 1.544,4.58 -5.169,8.584 -7.415,12.916 -8.317,16.035 8.977,36.072 25.852,33.816 0.925,-0.123 6.435,-3.426 7.611,-4.088 l 0.506,0.422 c -17.64,14.532 -42.433,-8.936 -35.945,-28.34 1.494,-4.469 9.733,-10.655 8.434,-14.236 -4.499,-2.021 -21.98,7.563 -30.175,-7.375 -10.438,-19.028 -4.876,-29.441 14.385,-38.323 0.988,-0.456 1.412,-1.338 1.561,-2.337 -2.942,-3.455 -10.368,-4.382 -15.455,-7.574 z"
       id="path26" />
    <path
       fill="#f5f9f4"
       d="m 574.89,657.469 c 0.591,0.182 1.189,0.341 1.793,0.477 25.438,5.843 17.549,-14.131 24.321,-18.573 l 1.275,0.27 c -1.259,5.954 -5.952,19.749 -11.017,23.254 -2.147,1.515 -4.828,2.064 -7.397,1.515 -3.938,-0.857 -6.756,-3.795 -8.975,-6.943 z"
       id="path27" />
    <path
       fill="#f5f9f4"
       d="m 706.47,569.731 c 4.783,1.301 8.376,2.259 13.022,4.076 2.371,3.252 3.553,4.927 2.621,9.222 -1.665,7.678 -6.335,10.965 -13.581,10.392 l -2.614,-0.915 1.159,-0.593 c 2.058,0.372 7.675,-0.495 9.165,-1.837 2.83,-2.547 3.916,-8.385 4.442,-11.914 -2.05,-0.746 -12.418,-7.021 -14.214,-8.431 z"
       id="path28" />
    <path
       fill="#f5f9f4"
       d="m 689.654,478.132 c 7.475,7.982 -1.971,16.491 -7.384,22.821 -0.095,-8.957 8.05,-11.256 8.612,-18.613 -0.909,-1.785 -1.178,-2.217 -1.228,-4.208 z"
       id="path29" />
    <path
       fill="#16ac89"
       d="m 534.555,638.385 -0.599,0.313 c -4.955,-3.018 -7.978,-5.515 -6.982,-11.891 0.76,-4.863 3.977,-8.442 7.767,-11.345 l 0.835,0.466 c -2.314,2.613 -8.232,8.892 -8.31,12.558 -0.042,1.929 6.877,8.975 7.289,9.899 z"
       id="path30" />
    <path
       fill="#16ac89"
       d="m 719.492,573.807 c 3.154,-0.116 4.889,3.497 4.515,6.325 -0.709,5.366 -3.515,10.145 -7.559,13.66 -2.636,0.473 -5.783,1.571 -7.916,-0.371 7.246,0.573 11.916,-2.714 13.581,-10.392 0.932,-4.295 -0.25,-5.97 -2.621,-9.222 z"
       id="path31" />
    <path
       fill="#16ac89"
       d="m 690.415,608.072 c 0.951,-2.796 2.078,-5.706 3.206,-8.437 1.821,-4.413 5.66,-1.865 8.44,-0.534 -1.945,0.426 -3.141,0.625 -5.12,0.836 -0.984,1.425 -1.408,1.782 -1.506,3.522 l -0.816,0.888 -0.779,-1.015 c -1.498,0.201 -0.916,-0.134 -1.852,0.952 -0.462,4.723 0.643,3.839 1.904,7.18 -1.288,-1.007 -2.346,-2.207 -3.477,-3.392 z"
       id="path32" />
    <path
       fill="#16ac89"
       d="m 513.388,543.413 c 3.5,0.779 7.243,1.704 10.16,3.876 -3.118,0.221 -8.018,-1.515 -10.16,-3.876 z"
       id="path33" />
    <path
       fill="#1ba652"
       d="m 601.501,444.181 c 2.359,4.477 6.391,13.485 10.636,15.555 1.145,-0.085 2,-0.069 2.802,-1.229 4.996,-7.232 7.62,-18.7 17.965,-20.129 5.667,-0.783 17.014,1.698 21.702,5.49 3.868,3.13 4.947,6.792 5.6,11.509 0.73,5.277 -2.123,12.603 -1.713,16.628 0.58,0.438 0.895,0.884 1.461,0.662 10.972,-4.507 19.817,-18.097 33.091,-8.907 5.463,3.782 11.403,10.51 12.645,17.234 2.232,12.084 -7.785,15.914 -10.379,25.484 -0.237,0.877 0.658,1.431 1.311,1.922 2.809,0.264 8.806,-1.403 11.976,-1.764 3.65,-0.417 6.039,-0.429 9.73,-0.114 15.702,9.951 20.789,35.303 -0.045,43.394 -1.712,0.665 -4.557,1.159 -6.417,1.504 -0.443,0.082 -0.887,0.16 -1.332,0.234 l -0.058,7.504 c 15.285,2.308 25.048,9.859 22.289,26.584 -2.093,12.69 -11.523,22.487 -24.912,19.039 -2.831,-0.729 -7.354,-2.348 -9.86,-0.886 -0.901,1.169 -1.132,1.439 -1.846,2.781 5.626,6.135 13.397,13.047 12.73,22.102 -0.944,12.823 -12.956,22.916 -25.748,21.733 -7.322,-0.677 -11.412,-6.599 -16.699,-10.853 -2.249,-0.007 -4.863,-0.099 -7.067,0.145 1.856,8.424 4.916,17.316 -0.323,25.09 -3.326,4.936 -9.207,9.285 -14.926,10.138 -12.824,1.914 -25.642,-4.374 -27.53,-18.181 -0.272,-1.988 0.137,-3.535 -1.34,-4.762 -2.076,-0.059 -2.289,-0.151 -4.139,0.642 -1.667,2.14 -2.623,6.282 -3.842,8.896 -7.413,15.9 -22.354,18.625 -36.063,8.291 -4.905,-3.697 -7.095,-9.187 -7.875,-15.112 -0.437,-4.094 3.165,-11.405 1.72,-15.194 -4.371,-1.57 -8.66,5.867 -11.455,8.482 l -0.506,-0.422 c 5.62,-6.848 5.773,-11.661 15.384,-5.989 0.991,4.238 -2.068,8.879 0.038,15.458 2.27,8.761 7.633,12.911 16.447,13.867 16.651,1.807 17.202,-12.081 22.381,-23.387 3.919,-0.138 8.127,-0.092 12.072,-0.122 2.246,6.192 2.748,15.723 8.127,19.941 7.094,5.264 21.514,3.821 27.014,-3.189 4.496,-5.73 0.513,-17.656 -0.401,-24.396 3.421,-4.001 4.982,-5.227 9.551,-7.856 7.629,4.42 12.669,12.74 21.986,13.648 2.143,0.209 5.493,-0.527 7.736,-0.816 13.657,-14.576 13.041,-18.917 0.473,-33.366 -1.261,-3.341 -2.366,-2.457 -1.904,-7.18 0.936,-1.086 0.354,-0.751 1.852,-0.952 l 0.779,1.015 0.816,-0.888 c 0.098,-1.74 0.522,-2.097 1.506,-3.522 1.979,-0.211 3.175,-0.41 5.12,-0.836 1.668,0.772 7.095,0.924 9.106,0.99 11.831,0.391 17.265,-8.527 16.841,-19.075 -0.661,-16.424 -12.886,-12.334 -22.566,-18.947 -1.697,-1.16 -0.902,-11.476 -0.861,-13.826 6.217,-2.327 14.172,-3.217 18.862,-8.32 6.412,-6.976 2.004,-20.167 -4.49,-25.507 -5.391,-4.434 -17.398,-1.573 -24.05,-0.683 -3.768,-3.648 -4.698,-7.919 -5.963,-12.799 5.064,-5.546 8.796,-8.68 10.873,-15.868 -1.53,-7.885 -7.273,-20.091 -17.083,-18.273 -8.687,1.61 -13.857,10.52 -21.91,12.919 -1.264,0.377 -6.982,-4.957 -8.049,-5.897 0.4,-2.187 0.949,-5.33 1.672,-7.369 5.556,-15.692 -6.947,-23.548 -21.885,-22.865 -8.989,5.432 -8.945,13.279 -14.642,22.195 l -0.381,0.59 c -5.195,0.391 -11.69,1.94 -13.929,-3.841 -1.002,-2.588 -3.688,-7.694 -5.661,-9.573 1.275,-2.846 2.409,-5.863 3.556,-8.771 z"
       id="path34" />
  </g>
</svg>
