<?xml version="1.0" encoding="UTF-8" standalone="no"?>
<svg
   width="1024"
   height="1024"
   viewBox="0 0 1024 1024"
   version="1.1"
   id="svg62"
   sodipodi:docname="icon-of-article-introduction-ai-generator(2).svg"
   inkscape:version="1.4.3 (1:1.4.3+202512261034+0d15f75042)"
   xmlns:inkscape="http://www.inkscape.org/namespaces/inkscape"
   xmlns:sodipodi="http://sodipodi.sourceforge.net/DTD/sodipodi-0.dtd"
   xmlns="http://www.w3.org/2000/svg"
   xmlns:svg="http://www.w3.org/2000/svg">
  <defs
     id="defs62" />
  <sodipodi:namedview
     id="namedview62"
     pagecolor="#ffffff"
     bordercolor="#666666"
     borderopacity="1.0"
     inkscape:showpageshadow="2"
     inkscape:pageopacity="0.0"
     inkscape:pagecheckerboard="0"
     inkscape:deskcolor="#d1d1d1"
     inkscape:zoom="0.78808594"
     inkscape:cx="633.17968"
     inkscape:cy="512"
     inkscape:window-width="1860"
     inkscape:window-height="1016"
     inkscape:window-x="60"
     inkscape:window-y="27"
     inkscape:window-maximized="1"
     inkscape:current-layer="svg62" />
  <g
     id="g62"
     transform="translate(761.33829,-194.67818)">
    <path
       fill="#2e2e57"
       d="m 720.833,499.118 c 6.828,-0.203 28.857,0.651 35.52,1.852 0.233,2.789 0.142,6.141 0.149,9 0.059,24.386 2.301,48.988 2.013,73.351 6.395,-0.022 12.789,-0.138 19.18,-0.347 3.689,-17.562 8.514,-34.894 13.05,-52.255 1.361,-5.211 2.792,-14.324 4.544,-18.609 0.746,-0.446 0.771,-0.578 1.711,-0.559 2.863,0.056 28.338,10.441 30.192,12.484 0.776,0.855 0.364,3.143 0.264,4.307 -1.554,18.227 -4.692,36.191 -5.524,54.539 5.9,-0.122 11.796,-0.362 17.687,-0.72 4.827,-3.222 31.922,-26.876 34.331,-26.394 3.34,0.667 17.536,17.393 20.028,20.988 -2.538,3.844 -7.54,9.14 -10.663,13.041 -9.974,12.458 -20.233,24.822 -29.888,37.536 -1.146,1.508 -1.21,2.129 -0.915,3.902 3.215,2.383 63.096,-0.23 70.578,-0.759 1.353,4.277 9.868,28.689 8.833,31.347 -3.36,2.316 -18.944,4.641 -23.667,5.611 l -56.324,11.371 0.091,19.061 c 11.018,0.464 24.462,2.146 35.689,3.099 17.371,1.45 34.785,2.338 52.214,2.662 0.209,6.462 1.271,33.695 -0.19,38.566 -3.493,1.963 -78.779,6.089 -87.85,6.685 l 0.109,22.892 c 15.365,1.23 32.35,4.88 47.753,7.074 7.067,1.007 28.123,3.248 33.221,5.714 1.04,2.592 -5.593,27.738 -6.598,31.752 -5.622,1.013 -15.229,0.324 -21.374,0.404 -15.035,0.194 -31.318,-0.698 -46.255,0.16 5.565,10.619 13.22,21.522 19.546,31.757 4.83,7.814 10.997,15.059 15.934,22.843 -2.43,5.235 -14.608,17.642 -19.183,22.107 -8.339,-5.478 -21.166,-22.904 -30.493,-28.134 -7.518,-0.179 -15.625,-0.004 -23.187,0.024 0.324,18.376 7.49,37.325 9.937,54.766 -4.802,3.624 -26.442,13.413 -32.125,12.963 -1.937,-2.247 -3.892,-9.784 -4.741,-12.781 -5.273,-18.608 -12.739,-36.591 -18.146,-55.137 -4.204,-0.065 -8.409,-0.038 -12.612,0.079 -0.731,19.637 -3.56,39.814 -4.323,59.521 -0.211,5.458 -0.428,11.412 -1.101,16.802 -2.097,2.677 -33.71,6.804 -37.195,5.533 -1.67,-3.945 -2.663,-24.08 -3.201,-29.497 -1.544,-15.548 -3.153,-31.517 -4.244,-47.095 -0.08,-1.956 -0.238,-3.992 -0.36,-5.954 l -22.415,0.447 -4.692,46.133 c -0.715,7.178 -2.387,30.014 -4.66,35.172 -3.816,1.164 -31.584,-6.233 -37.094,-7.818 -0.946,-22.296 -0.824,-44.862 -2.144,-67.183 -0.108,-1.829 0.13,-5.111 -1.286,-6.19 -6.335,1.621 -37.211,47.666 -44.787,55.221 -3.728,-2.201 -20.115,-12.633 -22.365,-14.897 -0.131,-4.767 4.638,-16.996 6.269,-22.841 1.591,-5.826 3.031,-11.692 4.32,-17.593 -11.965,-0.437 -8.424,-7 -8.357,-16.968 -15.702,1.782 -35.61,8.797 -50.38,10.129 -3.199,-3.993 -12.547,-21.351 -12.463,-26.125 1.837,-2.109 54.581,-24.376 61.69,-27.777 -0.083,-5.429 -0.222,-10.858 -0.416,-16.285 -17.283,-1.643 -34.839,-2.088 -52.169,-3.229 -8.601,-0.566 -17.187,-0.933 -25.796,-0.398 -2.693,-9.774 -6.296,-30.232 -5.972,-40.103 7.899,-1.371 21.466,-1.698 29.911,-2.121 17.912,-1.017 35.839,-1.749 53.774,-2.194 0.235,-8.617 0.039,-17.918 0.013,-26.584 -5.963,-1.12 -14.889,-1.971 -21.079,-2.766 l -37.41,-4.951 c -7.113,-0.954 -17.666,-2.319 -24.538,-4.092 0.235,-6.449 3.253,-30.39 7.391,-34.836 4.319,-0.553 20.63,0.173 25.997,0.287 l 50.386,0.899 c 0.013,-6.439 0.287,-13.178 0.467,-19.64 -10.027,-4.975 -20.159,-9.732 -30.389,-14.271 -4.224,-1.887 -29.261,-12.344 -31.459,-14.414 -0.255,-4.066 10.673,-24.769 14.021,-27.319 1.641,0.046 11.278,3.073 13.63,3.635 12.066,2.88 24.136,5.801 36.185,8.748 0.218,-3.293 0.774,-18.513 1.549,-20.128 1.391,-1.03 2.704,-1.013 4.448,-1.26 -3.768,-11.187 -11.272,-26.601 -13.927,-36.974 2.98,-2.697 20.639,-14.614 24.167,-15.111 2.624,2.447 6.785,8.351 9.145,11.481 7.402,9.99 15.016,19.823 22.835,29.49 2.476,3.057 6.464,8.392 9.293,10.742 1.552,0.478 1.442,0.507 3.025,0.205 2.945,-6.261 1.384,-46.799 3.064,-56.194 0.687,-3.257 -1.121,-16.513 3.121,-17.346 5.369,-1.054 30.4,-7.689 34.005,-6.495 1.033,1.017 1.187,1.115 1.402,2.667 3.567,25.788 5.074,51.744 8.104,77.602 l 24.3,0.046 4.444,-59.151 c 0.544,-7.127 0.655,-16.621 1.493,-23.267 1.203,-1.592 0.812,-1.094 2.934,-1.935 z"
       id="path2" />
    <path
       fill="#ffffff"
       d="m 664.167,591.263 c 39.955,-0.291 79.912,-0.346 119.868,-0.167 l 35.31,-0.145 c 7.459,-0.039 17.509,-0.381 24.706,0.677 -0.788,31.703 0.213,65.31 0.175,97.369 l -0.712,168.438 -81.412,-0.029 c -58.647,-0.244 -120.089,0.823 -178.412,-0.773 -0.492,-50.781 -2.134,-101.502 -1.826,-152.273 0.107,-17.527 0.927,-34.823 1.61,-52.328 l 1.76,-37.776 c 0.348,-7.016 0.494,-15.82 1.401,-22.628 z"
       id="path3" />
    <path
       fill="#2e2e57"
       d="m 722.339,614.752 c 11.299,-0.052 94.263,-0.243 98.086,3.07 4.408,8.255 7.423,86.614 7.618,100.536 0.333,26.936 -0.36,53.875 -2.077,80.759 -0.46,7.706 -0.656,16.023 -1.986,23.526 -0.756,4.264 -7.071,10.201 -11.409,10.511 -10.568,0.757 -21.941,0.384 -32.518,0.404 l -74.071,0.093 c -20.135,-0.09 -40.27,-0.076 -60.405,0.044 -11.081,0.048 -23.939,0.464 -34.861,-0.062 -7.266,-11.409 -9.789,-86.032 -10.02,-103.967 -0.187,-14.479 1.22,-104.408 9.581,-112.987 3.353,-1.181 19.212,-1.226 23.421,-1.328 29.544,-0.57 59.093,-0.77 88.641,-0.599 z"
       id="path4" />
    <path
       fill="#ffffff"
       d="m 646.647,623.255 c 32.865,-0.452 65.735,-0.567 98.603,-0.344 21.07,0.072 47.958,-0.392 68.583,1.196 1.175,6.259 1.668,14.444 2.156,20.971 3.46,46.23 4.971,92.906 2.31,139.2 -2.563,44.611 6.283,41.891 -37.924,41.535 l -165.249,-0.412 c -0.235,-6.019 -0.999,-12.961 -1.628,-18.975 -4.977,-47.595 -6.597,-95.312 -2.328,-143.039 1.053,-11.772 1.748,-27.622 4.422,-39.175 9.122,-0.854 21.689,-0.78 31.055,-0.957 z"
       id="path5" />
    <path
       fill="#2e2e57"
       d="m 624.803,633.508 c 3.862,-0.421 14.257,-0.064 18.49,-0.019 11.823,0.163 23.646,0.242 35.47,0.234 13.354,-0.018 121.534,-0.772 125.105,1.037 1.689,6.372 2.497,30.48 2.766,37.947 1.665,39.907 1.657,79.866 -0.023,119.773 -0.174,4.795 -0.072,17.198 -0.569,21.012 -1.165,1.634 -0.437,0.931 -2.548,1.86 -58.868,-0.347 -117.738,-0.262 -176.604,0.256 -1.379,-4.285 -3.067,-19.874 -3.686,-25.155 -2.482,-20.49 -3.853,-41.1 -4.107,-61.738 -0.099,-25.876 2.082,-51.788 3.831,-77.583 0.392,-5.783 0.672,-11.973 1.875,-17.624 z"
       id="path6" />
    <path
       fill="#ffffff"
       d="m 631.522,641.581 164.841,0.479 c 1.333,9.788 1.719,24.894 2.193,35.06 1.457,37.447 1.507,74.935 0.151,112.386 -0.082,2.974 -0.031,16.481 -0.868,18.168 l -1.714,0.199 c -18.744,0.181 -37.978,-0.328 -56.827,-0.364 l -106.605,-0.131 c -2.031,-10.504 -2.685,-26.048 -3.482,-36.798 -2.581,-34.818 -2.069,-69.465 0.834,-104.24 0.677,-8.113 0.632,-16.816 1.477,-24.759 z"
       id="path7" />
    <path
       fill="#2e2e57"
       d="m 696.747,664.489 c 2.181,-0.172 4.029,-0.458 5.912,0.517 6.981,11.072 11.893,39.8 15.549,53.314 5.255,19.421 11.183,39.404 15.264,59.047 0.21,1.012 -0.69,2.219 -1.379,2.869 -2.471,0.361 -5.423,-2.662 -6.174,-4.736 -5.187,-14.342 -8.264,-29.363 -12.712,-43.969 -10.427,-2.994 -19.795,-5.316 -30.332,-7.811 l -8.331,20.897 c -3.887,10.473 -11.498,31.329 -21.041,37.283 -1.462,0.911 -3.178,1.452 -4.878,0.842 -1.084,-0.389 -1.708,-1.273 -2.181,-2.268 -1.528,-3.22 3.964,-7.057 5.985,-9.178 9.354,-9.818 17.586,-35.398 22.597,-48.797 -6.7,-1.072 -13.644,-0.609 -20.412,-0.87 -3.139,-0.12 -7.332,-1.77 -5.451,-5.573 5.287,-3.775 21.195,-1.811 28.053,-1.369 4.099,-11.058 14.072,-42.22 19.531,-50.198 z"
       id="path8" />
    <path
       fill="#ffffff"
       d="m 698.811,676.878 c 1.637,1.669 11.017,40.831 12.164,45.779 l -9.926,-2.888 c -5.278,-1.325 -10.589,-2.513 -15.929,-3.563 4.294,-13.013 9.26,-26.23 13.691,-39.328 z"
       id="path9" />
    <path
       fill="#2e2e57"
       d="m 747.841,705.286 c 3.294,-0.217 11.127,-1.169 13.542,0.914 4.487,11.254 -12.198,47.426 0.921,60.592 9.156,9.189 18.585,-1.429 23.702,4.109 1.212,4.808 -4.289,6.422 -7.626,7.484 -7.94,1.474 -17.586,-0.33 -22.618,-7.081 -11.971,-16.062 -3.684,-40.485 -1.614,-58.857 -4.597,0.461 -14.113,1.948 -16.196,-3.426 1.464,-3.597 6.641,-3.634 9.889,-3.735 z"
       id="path10" />
    <path
       fill="#2e2e57"
       d="m 760.69,678.992 c 8.264,-0.007 9.889,4.805 4.838,10.698 -6.604,-0.086 -9.832,-5.974 -4.838,-10.698 z"
       id="path11" />
    <path
       fill="#2e2e57"
       d="m 826.846,829.081 c 5.333,-0.267 10.501,1.503 12.441,6.929 1.058,2.905 0.863,6.118 -0.538,8.873 -2.044,3.99 -5.059,5.439 -9.084,6.779 -6.168,0.077 -12.168,-0.969 -13.815,-8.038 -0.674,-2.998 -0.108,-6.142 1.57,-8.717 2.345,-3.608 5.427,-4.937 9.426,-5.826 z"
       id="path12" />
    <path
       fill="#ffffff"
       d="m 826.617,836.106 c 2.29,-0.644 4.678,0.648 5.392,2.917 0.714,2.269 -0.504,4.695 -2.75,5.479 -1.516,0.529 -3.199,0.19 -4.393,-0.883 -1.194,-1.073 -1.71,-2.711 -1.345,-4.274 0.364,-1.563 1.55,-2.805 3.096,-3.239 z"
       id="path13" />
    <path
       fill="#2e2e57"
       d="m 597.133,831.954 c 5.526,-1.049 10.862,2.557 11.951,8.074 1.089,5.518 -2.477,10.88 -7.987,12.009 -5.566,1.141 -10.996,-2.471 -12.096,-8.045 -1.1,-5.574 2.55,-10.978 8.132,-12.038 z"
       id="path14" />
    <path
       fill="#ffffff"
       d="m 597.545,837.159 c 1.568,-0.419 3.239,0.051 4.359,1.226 1.12,1.174 1.511,2.865 1.019,4.412 -0.492,1.546 -1.788,2.701 -3.381,3.012 -2.35,0.459 -4.641,-1.027 -5.179,-3.36 -0.539,-2.333 0.869,-4.673 3.182,-5.29 z"
       id="path15" />
    <path
       fill="#2e2e57"
       d="m 824.977,596.146 c 8.769,-1.243 15.771,2.895 13.571,13.442 -0.565,2.706 -3.641,4.803 -6.108,5.959 -13.11,1.906 -20.173,-13.013 -7.463,-19.401 z"
       id="path16" />
    <path
       fill="#ffffff"
       d="m 826.194,602.238 c 1.821,-0.981 4.092,-0.292 5.061,1.535 0.969,1.827 0.265,4.094 -1.569,5.051 -1.816,0.948 -4.057,0.251 -5.017,-1.559 -0.96,-1.81 -0.278,-4.056 1.525,-5.027 z"
       id="path17" />
    <path
       fill="#2e2e57"
       d="m 599.064,597.574 c 7.395,-0.371 14.13,1.756 11.982,11.735 -0.671,3.117 -4.218,5.729 -7.057,7.115 -14.316,1.746 -17.694,-13.666 -4.925,-18.85 z"
       id="path18" />
    <path
       fill="#ffffff"
       d="m 599.533,603.638 c 1.231,-0.496 2.636,-0.27 3.649,0.588 1.013,0.858 1.469,2.206 1.182,3.502 -0.286,1.297 -1.266,2.328 -2.546,2.679 -1.829,0.502 -3.731,-0.509 -4.338,-2.306 -0.606,-1.796 0.294,-3.754 2.053,-4.463 z"
       id="path19" />
    <path
       fill="#ffffff"
       d="m 851.551,705.942 c 26.314,2.162 55.315,4.975 81.521,5.091 -0.055,4.587 0.108,20.973 -0.558,24.866 -1.374,0.793 -3.316,0.644 -4.979,0.688 -24.943,2.32 -50.718,1.922 -75.51,4.434 z"
       id="path20" />
    <path
       fill="#ffffff"
       d="m 720.96,865.138 c 11.475,-0.098 22.951,-0.134 34.426,-0.108 -1.409,21.348 -2.47,49.211 -5.055,69.989 l -0.146,0.833 c -2.155,1.634 -19.047,3.118 -22.607,3.36 -1.219,-24.725 -4.976,-49.747 -6.618,-74.074 z"
       id="path21" />
    <path
       fill="#ffffff"
       d="m 560.879,748.75 13.278,-0.458 c 0.507,9.349 0.23,21.791 0.296,31.38 -19.012,-0.509 -39.161,-2.241 -58.328,-3.135 -4.428,-0.115 -8.984,-0.366 -13.421,-0.555 -1.701,-7.294 -3.039,-16.825 -4.296,-24.364 21.339,-1.511 41.122,-2.218 62.471,-2.868 z"
       id="path22" />
    <path
       fill="#ffffff"
       d="m 726.008,506.566 c 6.662,-0.078 15.733,0.801 22.832,1.015 0.227,25.231 0.804,50.457 1.729,75.673 l -5.653,0.124 c -8.355,0.091 -16.711,0.131 -25.067,0.121 1.433,-24.643 4.114,-52.161 6.159,-76.933 z"
       id="path23" />
    <path
       fill="#ffffff"
       d="m 671.514,512.178 0.363,0.156 c 1.118,1.627 7.107,64.824 7.706,71.055 l -24.94,0.136 -8.281,0.153 c 0.455,-21.624 2.11,-45.035 2.991,-66.879 7.395,-1.362 14.578,-3.369 22.161,-4.621 z"
       id="path24" />
    <path
       fill="#ffffff"
       d="m 649.88,865.143 32.713,-0.107 c -1.481,21.121 -4.621,45.734 -6.725,67.083 l -0.492,5.834 c -7.147,-1.342 -15.831,-3.433 -22.937,-5.206 -0.103,-22.288 -1.699,-45.214 -2.559,-67.604 z"
       id="path25" />
    <path
       fill="#ffffff"
       d="m 502.801,674.905 c 23.933,0.088 47.863,0.563 71.781,1.426 0.012,3.941 0.543,26.266 -0.746,28.297 l -1.425,0.048 c -11.722,-0.83 -27.665,-3.517 -39.675,-4.878 -8.714,-0.988 -25.55,-2.709 -33.433,-4.391 1.049,-6.854 2.215,-13.689 3.498,-20.502 z"
       id="path26" />
    <path
       fill="#ffffff"
       d="m 852.038,780.074 c 23.433,2.95 49.497,6.285 72.806,9.98 -0.603,4.628 -2.607,11.934 -3.754,16.66 -0.329,1.225 -0.321,1.141 -1.135,2.129 -5.325,0.55 -16.932,0.115 -22.797,0.073 l -45.197,-0.319 c -0.059,-9.508 -0.033,-19.016 0.077,-28.523 z"
       id="path27" />
    <path
       fill="#ffffff"
       d="m 912.599,638.72 4.709,-0.195 c 2.075,5.853 3.888,12.197 5.706,18.169 -20.668,4.242 -41.381,8.263 -62.134,12.063 l -8.897,1.639 c 0.05,-10.16 -0.056,-20.32 -0.316,-30.477 20.423,-0.52 40.374,-0.389 60.932,-1.199 z"
       id="path28" />
    <path
       fill="#ffffff"
       d="m 801.413,521.123 c 5.623,1.922 12.926,5.266 18.282,7.856 -2.998,17.66 -4.248,36.229 -6.125,54.081 l -10.642,0.066 c -5.799,0.047 -11.599,0.021 -17.397,-0.079 4.766,-20.475 10.545,-41.524 15.882,-61.924 z"
       id="path29" />
    <path
       fill="#ffffff"
       d="m 785.127,865.067 c 9.12,-0.087 18.44,0.052 27.576,0.09 2.693,20.794 4.814,31.37 9.732,51.422 l -5.311,2.115 -13.285,4.96 c -0.881,-2.535 -1.613,-5.124 -2.38,-7.695 -5.092,-17.075 -11.282,-33.805 -16.332,-50.892 z"
       id="path30" />
    <path
       fill="#ffffff"
       d="m 530.987,600.936 c 14.448,4.988 30.82,8.667 45.881,11.277 -0.055,8.949 -0.597,18.2 -1.008,27.164 l -3.985,-1.637 c -16.824,-7.706 -31.021,-14.913 -48.559,-21.614 2.299,-4.893 5.202,-10.321 7.671,-15.19 z"
       id="path31" />
    <path
       fill="#ffffff"
       d="m 573.934,813.451 0.74,0.309 c 1.132,3.716 0.901,21.198 0.924,26.161 -12.833,2.9 -32.188,6.636 -45.593,9.596 -1.016,0.224 -1.426,-1.142 -2.005,-2.192 -1.713,-3.65 -3.377,-7.574 -5.021,-11.277 5.829,-2.998 14.62,-6.325 20.818,-8.929 10.184,-4.244 20.235,-8.802 30.137,-13.668 z"
       id="path32" />
    <path
       fill="#ffffff"
       d="m 592.512,865.492 36.538,-0.073 -24.418,30.827 c -3.645,4.725 -6.628,8.743 -9.979,13.681 -4.592,-3.023 -7.947,-5.328 -12.325,-8.724 4.98,-11.277 7.614,-23.683 10.184,-35.711 z"
       id="path33" />
    <path
       fill="#ffffff"
       d="m 590.17,541.333 c 2.949,0.325 11.794,13.303 14.053,16.296 6.538,8.785 13.285,17.412 20.236,25.875 l -10.209,-0.006 -21.552,0.04 c -5.238,-11.006 -9.339,-22.663 -13.538,-34.111 z"
       id="path34" />
    <path
       fill="#ffffff"
       d="m 851.632,819.832 c 1.105,0.927 3.765,6.14 4.688,7.743 8.654,15.126 18.17,29.742 28.503,43.774 l -5.261,6.285 c -1.501,1.686 -3.191,3.296 -4.799,4.889 -6.017,-4.633 -17.977,-17.485 -23.131,-23.251 0.376,-3.911 0.098,-11.133 0.056,-15.333 -0.071,-8.035 -0.09,-16.071 -0.056,-24.107 z"
       id="path35" />
    <path
       fill="#ffffff"
       d="m 873.351,565.404 c 2.327,1.813 8.556,9.513 10.405,11.885 -9.458,10.582 -19.38,23.268 -27.998,34.431 l -3.745,4.816 c -0.176,-8.717 0.317,-21.743 0.002,-30.74 -0.029,-0.838 -1.208,-0.206 -2.124,-1.624 2.398,-2.726 19.296,-15.537 23.46,-18.768 z"
       id="path36" />
  </g>
  <g
     id="g63"
     transform="translate(33.349813,34.007182)">
    <path
       fill="#2e2e57"
       d="m 865.67252,3.4651838 c 17.07286,-0.8241748 35.15408,3.2032527 49.94192,11.8655432 19.36994,11.297292 33.41469,29.872909 39.00667,51.588156 9.23957,36.540777 -6.93948,71.621007 -25.31763,102.091997 1.08673,2.85025 2.14032,5.71255 3.15772,8.58843 20.71142,58.9554 2.89698,102.4462 -31.60596,150.66531 -32.98362,46.85956 -75.01989,89.09932 -122.03168,121.89151 -23.59784,15.63793 -48.02919,30.87193 -72.40328,45.21813 -10.71217,5.24078 -21.66551,41.05053 -37.77974,29.60883 -16.10821,-11.43717 -10.45142,-44.57905 -0.78982,-58.68259 14.51502,-21.18921 27.82272,-8.99991 47.47905,-13.21123 10.87345,-2.32873 21.03396,-13.96335 29.78066,-20.2351 45.08097,-35.79317 156.22412,-152.06407 140.3827,-211.26365 -14.07942,17.46476 -33.25944,34.21053 -48.85517,50.94576 -91.21101,97.87767 -191.75504,186.46904 -284.59239,282.65253 -6.85054,7.09774 -11.41004,7.22284 -20.67072,7.12487 -24.71019,19.63974 -48.9034,39.92007 -72.55701,60.8214 -12.76357,11.06337 -26.88067,22.49753 -38.85744,34.20451 3.86615,5.30258 5.88739,8.52813 8.25381,14.58134 -5.40959,7.44592 -52.53895,58.98856 -58.41429,62.27893 -5.91754,-3.83299 -18.29827,-26.69679 -26.24912,-35.74946 -5.07046,6.06376 -8.28547,12.73644 -11.59996,19.74224 -13.4132,28.35027 -25.83312,57.35769 -31.58487,88.34266 -2.07099,11.1508 -2.85477,22.80803 -5.75325,33.57146 -1.11689,4.148 -14.56627,4.03646 -18.345,4.20679 -31.5713,1.36558 -62.72207,7.76244 -92.27815,18.94639 C 121.75284,886.33476 64.494624,920.25288 6.9319398,952.26581 4.2052863,953.78213 0.31200512,950.2521 0,946.41609 c 2.429721,-5.1624 8.2432657,-13.71616 11.5879,-19.03382 5.97633,-9.51239 11.708482,-19.177 17.190427,-28.98331 32.079251,-57.89881 56.861803,-123.71229 61.465008,-190.22063 0.349687,-5.03881 0.423543,-24.74638 3.227068,-28.47084 2.126759,-2.82463 15.876087,-2.3016 20.351177,-3.62047 46.72842,-13.77645 87.34485,-46.22349 122.78682,-78.63282 -14.8843,-6.68927 -25.59647,-9.97964 -8.00663,-24.76899 13.74934,-11.55926 32.55404,-36.72767 47.33586,-44.88352 8.20257,0.25774 10.23136,1.03851 17.69385,4.36506 12.12298,-15.0712 25.11415,-29.44907 37.55215,-44.24896 23.59483,-28.0488 46.47219,-56.73971 71.00755,-83.9776 2.97233,-3.32204 5.21667,-7.57556 7.01032,-11.64519 6.64556,-15.07873 17.52654,-23.98218 34.34468,-17.40445 7.8378,-10.39113 16.22727,-19.47546 24.6484,-29.34958 17.76922,-21.07768 35.93786,-41.81623 54.49237,-62.20358 55.74341,-62.7296 113.61659,-123.52991 173.52157,-182.29841 l 35.15107,-34.671753 c 6.15118,-6.053206 12.63094,-12.721368 19.26444,-18.204823 3.24666,-2.682946 7.68256,-1.451505 11.67381,-0.804888 C 794.99808,24.109368 824.20598,6.4521437 865.67252,3.4651838 Z"
       id="path37"
       style="stroke-width:1.50727" />
    <path
       fill="#ffffff"
       d="m 734.60023,81.263583 c 49.0481,10.620234 106.08927,71.715967 131.22753,114.774177 -20.63303,21.83282 -48.59893,45.08399 -71.01206,65.52107 -72.32037,65.94312 -148.67119,127.73068 -223.53584,190.7527 -7.01635,5.63417 -14.07791,12.02802 -20.8757,17.98024 -20.29089,-35.86251 -57.44814,-71.94959 -94.48781,-90.11522 5.06895,-7.36303 14.93705,-18.13699 20.97367,-25.06441 l 35.71479,-41.05506 c 25.54825,-29.37972 51.43111,-58.51829 78.32384,-86.67562 47.00274,-49.21391 93.60455,-99.99086 143.67158,-146.117877 z"
       id="path38"
       style="stroke-width:1.50727" />
    <path
       fill="#2e2e57"
       d="m 724.94314,177.89926 c 23.43203,-1.33243 43.59329,16.39006 45.27541,39.79949 1.68211,23.40793 -15.73592,43.83145 -39.1167,45.86475 -15.43899,1.34298 -30.40317,-5.73517 -39.1589,-18.52285 -8.75424,-12.78769 -9.94197,-29.29985 -3.10649,-43.20744 6.83698,-13.9091 20.63454,-23.05521 36.10668,-23.93395 z"
       id="path39"
       style="stroke-width:1.50727" />
    <path
       fill="#ffffff"
       d="m 724.9356,190.52265 c 16.65083,-1.35201 31.27588,10.97897 32.75903,27.61773 1.48316,16.64028 -10.73177,31.3633 -27.35998,32.97608 -16.81362,1.63237 -31.73711,-10.74835 -33.23533,-27.57553 -1.49974,-16.82567 10.99856,-31.65118 27.83628,-33.01828 z"
       id="path40"
       style="stroke-width:1.50727" />
    <path
       fill="#ffffff"
       d="m 246.74027,604.33941 c 23.58126,8.90948 55.17367,40.43406 70.32475,61.37307 -4.69815,9.25012 -18.12493,27.8604 -24.66799,38.39471 -22.34078,35.9665 -46.68471,75.57306 -62.83512,114.86913 -64.79758,12.67465 -116.26788,49.29832 -169.80464,85.60095 -4.916719,3.33408 -9.752044,6.61239 -14.836069,9.70079 16.42624,-18.70524 41.412273,-42.09657 59.427179,-60.40238 29.03457,-29.94948 57.85359,-60.10545 86.45405,-90.46792 l 6.18283,2.69801 c 10.77849,2.83217 22.91655,-1.52837 29.23956,-10.7378 3.66869,-5.4533 5.03578,-12.13504 3.79982,-18.59068 -4.49016,-23.66716 -35.74644,-30.18009 -48.60045,-9.04815 -5.61157,9.22602 -3.67623,17.75716 -1.6595,27.51976 -2.58648,4.2083 -31.67229,33.81262 -36.63423,38.98859 -23.62195,24.96643 -47.551386,49.64046 -71.782275,74.01755 -9.174759,9.39784 -17.689334,18.92832 -27.08114,28.20557 8.766289,-17.9727 19.838702,-38.39773 26.9485,-57.05022 18.091775,-47.47451 31.743125,-98.53332 31.768755,-149.48812 54.78177,-6.53553 104.57296,-49.15061 143.75597,-85.58286 z"
       id="path41"
       style="stroke-width:1.50727" />
    <path
       fill="#ffffff"
       d="m 414.7392,409.01516 c 5.38097,1.33696 12.59628,5.61761 17.60645,8.50855 25.01918,14.43514 43.83295,31.05431 62.53667,52.93838 l -114.79376,119.47686 -4.74641,4.85793 c -27.5092,-27.78956 -36.23329,-37.34566 -71.05878,-56.40963 15.53544,-19.74374 35.41484,-41.62178 51.85314,-61.1952 11.57132,-13.97994 23.30542,-27.82423 35.20231,-41.52683 7.46251,-8.75874 15.38472,-18.52586 23.40038,-26.65006 z"
       id="path42"
       style="stroke-width:1.50727" />
    <path
       fill="#ffffff"
       d="m 862.69113,17.026702 c 38.00284,-2.795231 72.70021,18.424888 79.99992,57.327558 7.40825,39.47392 -15.14053,73.08456 -36.01774,104.26999 C 901.46569,169.61379 896.01087,160.74802 890.31489,152.039 870.57568,122.11968 839.72635,88.355296 809.82511,68.465349 800.38055,62.181536 790.07685,57.47885 779.73395,52.920859 804.09296,34.149308 831.76344,20.31858 862.69113,17.026702 Z"
       id="path43"
       style="stroke-width:1.50727" />
    <path
       fill="#ffffff"
       d="m 919.0887,181.62976 c 0.18539,0.20498 0.36928,0.41148 0.55468,0.61647 8.9562,17.92145 10.28712,47.22882 6.5099,65.53766 -12.81934,62.11614 -87.97037,144.01824 -137.35611,179.80387 -19.66988,14.38087 -39.91706,27.95385 -60.69177,40.68576 -10.38058,6.43304 -20.8531,11.66779 -31.08597,18.61933 -11.67381,7.92975 -12.7289,21.37762 -21.29773,27.12485 -8.10762,-7.72928 -5.60555,-23.89628 -1.7605,-33.42223 2.73118,-6.77217 7.00579,-11.01363 12.47116,-15.60779 11.52309,-0.21555 18.0149,2.78996 30.83726,0.24116 15.81127,-3.14116 29.34054,-17.10753 41.59918,-27.65843 39.36388,-33.88043 75.89863,-72.37765 104.84728,-115.6725 16.60109,-24.82777 33.95278,-55.86097 35.59873,-86.25811 0.47328,-8.73012 -1.01741,-17.60342 -2.70404,-26.13156 7.97648,-8.62309 15.44802,-18.48367 22.47793,-27.87848 z"
       id="path44"
       style="stroke-width:1.50727" />
    <path
       fill="#ffffff"
       d="m 254.65195,565.0961 c 12.80124,4.10882 47.83626,27.91165 57.3381,36.6508 27.15499,24.97247 61.39868,63.20138 77.14213,96.806 -5.92056,5.95673 -11.66175,11.84112 -17.92296,17.44816 -36.97487,-56.5739 -74.01304,-102.01361 -135.24443,-132.30976 5.0358,-6.19941 12.74248,-13.01076 18.68716,-18.5952 z"
       id="path45"
       style="stroke-width:1.50727" />
    <path
       fill="#ffffff"
       d="m 279.53247,540.22764 c 7.73531,2.57743 16.85129,7.74887 23.96862,11.76123 37.05928,20.89379 63.73949,50.39862 87.50764,85.01913 8.00211,11.65423 15.06065,21.00985 22.31213,33.59255 -5.1021,5.53018 -9.76108,11.37538 -15.03803,17.01559 -5.83465,-8.84015 -10.64737,-17.70441 -16.90405,-26.5325 -23.62647,-33.33782 -53.38604,-65.75168 -87.33431,-88.63357 -9.26971,-6.24914 -20.51244,-11.47485 -30.54183,-16.3358 5.52566,-5.79545 10.07761,-10.46649 16.02983,-15.88663 z"
       id="path46"
       style="stroke-width:1.50727" />
    <path
       fill="#ffffff"
       d="m 430.07719,385.23796 c 12.98968,-0.43409 28.18447,9.00444 38.83635,15.97708 42.67387,27.93425 81.50569,76.48496 91.82145,127.06596 -4.49317,4.79313 -8.9366,9.63297 -13.32879,14.51803 l -3.92343,3.71995 c -8.27643,-43.41694 -24.6258,-71.0814 -56.44881,-102.41455 -10.00828,-9.85303 -18.84089,-17.49339 -30.73025,-25.84668 -10.87948,-7.80917 -23.54658,-13.55489 -34.35221,-21.24951 -4.56251,-3.24817 6.19036,-10.61873 8.12569,-11.77028 z"
       id="path47"
       style="stroke-width:1.50727" />
    <path
       fill="#ffffff"
       d="m 759.08283,58.909248 c 1.63991,0.453684 3.27078,0.939029 4.89109,1.453012 14.40499,4.473573 28.07595,11.03322 40.58026,19.467913 33.71163,22.707037 73.57442,70.312687 92.34749,106.291247 -3.53154,4.65746 -9.02253,10.59311 -13.0786,14.81195 -5.34025,-9.71737 -11.54419,-18.88309 -18.03298,-27.86642 -30.41975,-42.11617 -70.5629,-84.443361 -121.13336,-101.329313 5.16693,-4.362046 9.55159,-8.160376 14.4261,-12.828389 z"
       id="path48"
       style="stroke-width:1.50727" />
    <path
       fill="#2e2e57"
       d="m 238.76127,41.315095 c 2.03653,-0.447352 4.10579,-0.615133 5.93925,0.353259 2.53749,2.272345 3.0328,14.45482 3.45252,18.345692 0.92633,8.737273 1.96548,17.462585 3.11743,26.172892 19.20104,3.561962 24.76684,6.862183 41.68987,13.686 8.90437,-8.837785 20.3169,-27.911345 29.26301,-32.715092 3.05876,1.796773 8.65389,6.791782 11.58402,9.263843 7.20068,6.063363 14.37088,12.163962 21.5095,18.299541 6.96823,5.96634 26.10383,20.4647 30.33713,27.07867 -0.42198,3.22461 -21.98336,28.25544 -25.46411,32.02616 10.16805,15.37843 14.09671,23.13195 21.56592,39.75938 6.54175,-1.15761 41.19002,-5.80047 46.20973,-5.02761 0.41295,0.36443 0.56301,0.44792 0.86538,0.9974 2.65823,4.83015 6.49664,67.3988 6.47633,76.08879 -0.004,2.40774 -0.11847,4.84709 -0.99628,7.11042 -3.83727,1.99591 -36.38696,3.83275 -43.4353,4.42397 -2.87147,16.65 -5.00165,24.49265 -12.01277,39.93653 7.48386,6.42778 30.87982,25.12109 34.89538,31.75762 0.72208,1.19485 1.30315,2.30394 0.8225,3.70753 -1.04704,3.05311 -43.4872,49.94885 -48.33203,54.60073 -1.93613,1.85941 -4.16334,3.74476 -6.72228,4.62821 -4.97232,-2.24077 -28.05688,-23.66789 -34.17441,-28.87377 -14.08202,9.61181 -23.11729,13.7492 -38.57468,20.27404 0.83266,6.72564 5.55,40.18473 3.22123,44.42818 -5.81514,3.76619 -62.49193,9.00704 -74.84318,10.52796 -3.18512,0.42536 -6.5237,1.29075 -9.24398,-0.41069 -1.84923,-3.40627 -5.03888,-38.40432 -5.79144,-44.79263 -16.26865,-3.49541 -24.10115,-5.55226 -39.16252,-12.39978 -5.59739,7.1059 -22.87697,30.30217 -28.6357,34.79384 -11.52987,-7.85958 -22.24738,-17.55825 -33.125099,-26.32498 -9.308288,-7.50079 -19.970513,-14.93839 -28.457429,-23.32488 -1.179047,-1.16551 -2.681917,-2.67063 -3.066648,-4.33597 -0.564142,-2.44499 20.95663,-28.72934 24.282785,-33.65427 -2.039926,-3.6703 -5.614313,-8.29059 -7.938555,-12.05453 -5.463119,-8.84569 -10.31697,-18.24086 -13.113982,-28.27351 -4.861749,0.78416 -38.963939,5.06147 -41.759806,4.34839 -0.938727,-2.26898 -1.46463,-4.54808 -1.825893,-6.96825 -1.216397,-8.14503 -9.679951,-74.82513 -7.206986,-77.45401 2.951794,-3.14 35.072389,-3.09374 42.045146,-3.44464 2.35698,-17.60903 5.213771,-24.2997 11.740858,-40.71502 -6.694062,-6.23035 -14.630372,-12.38962 -21.660676,-18.27584 -3.877893,-3.24494 -9.738162,-7.33719 -12.863489,-11.01426 -0.48516,-3.11291 4.124979,-8.10441 6.231481,-9.98074 7.49064,-6.66925 43.575207,-51.316321 50.445289,-53.262603 5.485694,2.39082 27.181344,22.304923 33.069834,27.481463 16.16596,-10.86081 21.5298,-15.80944 40.79174,-22.655828 -1.29863,-5.627841 -8.03447,-41.180665 -5.81401,-44.026862 7.72082,-3.412365 62.68373,-8.664157 74.66492,-10.104745 z"
       id="path49"
       style="stroke-width:1.12828" />
    <path
       fill="#ffffff"
       d="m 235.9857,50.953074 c 0.21099,-0.05815 1.42501,-0.01352 1.69128,-0.01099 2.07265,3.612631 3.40063,34.38043 5.33788,41.733433 1.72515,1.910158 5.50261,2.174185 7.97129,2.487836 15.71241,1.991421 29.72108,9.053307 44.13485,15.236267 4.65753,-3.85081 20.77045,-24.514094 26.73905,-30.903531 5.48117,3.393874 14.98466,11.638195 20.35863,16.172748 10.31473,8.702403 21.83557,18.071613 31.40787,27.475803 -4.70491,5.50825 -21.73853,25.85787 -25.13803,31.1619 8.6223,12.6435 17.62709,23.21658 22.76414,38.14369 1.01658,2.95157 2.20805,6.55303 4.00877,9.05895 2.31636,1.67661 39.91282,-3.46156 46.17252,-3.74136 1.51188,22.55313 3.65109,45.89043 4.92041,68.25853 -13.32722,0.73 -28.03094,0.77965 -41.0648,3.00235 -3.23138,0.55061 -6.48308,22.60618 -7.80316,26.85301 -2.52396,8.12247 -5.60077,14.70711 -8.97095,22.4674 3.26186,4.99601 29.4142,27.74773 35.54753,33.31804 -13.04853,15.4495 -31.04907,34.64265 -44.90094,49.62391 l -0.64539,-0.63747 c -2.49123,-2.44386 -30.78279,-28.49353 -32.94457,-27.96437 -2.87824,0.70405 -15.84441,9.76976 -20.02467,12.15043 -3.74025,2.14824 -7.61588,4.05276 -11.60096,5.70231 -4.0742,1.69016 -13.44231,3.89932 -15.73496,6.39508 -1.73642,6.89716 2.41452,35.32074 3.15579,44.13146 -18.7249,2.91997 -45.94798,6.00921 -64.83196,7.65423 -1.4363,0.20308 -1.42502,0.30802 -2.77219,-0.13882 -3.31375,-5.87043 -3.01022,-35.15713 -5.54774,-42.47064 -2.0591,-2.43821 -9.66708,-2.77104 -13.0993,-3.32502 -13.54836,-2.18662 -24.42157,-7.21534 -36.73561,-12.94136 -5.32997,4.60113 -20.34735,26.32047 -26.1467,33.31241 -7.26723,-4.1374 -21.7137,-16.49768 -28.2013,-21.80623 -8.120207,-6.64556 -17.808735,-14.04931 -25.570156,-20.91827 7.401499,-10.05634 17.358562,-20.40942 24.075186,-30.92045 1.88085,-2.9448 -9.601631,-16.94898 -11.947322,-20.72534 -2.501392,-4.0302 -4.743276,-8.21612 -6.713249,-12.53065 -2.698844,-5.87493 -4.90237,-19.07917 -10.590027,-18.30291 -12.194426,1.66307 -25.2768,2.77443 -37.400144,4.73085 -3.10953,-21.778 -5.309678,-46.61027 -7.492901,-68.50788 13.167008,-0.40167 27.130579,-0.49306 40.087714,-2.05121 2.567968,-1.28963 3.760551,-10.21995 3.970409,-12.36029 1.435178,-14.62022 7.141992,-25.83078 12.034217,-39.30469 -8.525275,-8.68435 -23.497511,-19.33529 -33.39252,-28.47208 13.344142,-14.45211 31.248789,-36.89807 45.004748,-49.8744 11.920255,9.00592 21.303015,18.13256 32.698615,27.24227 13.21327,-7.27964 24.54682,-20.17699 40.3427,-24.38658 3.21447,-0.85638 7.77948,-2.63229 9.9988,-5.153981 0.91841,-2.901933 -5.53307,-35.741932 -6.53272,-41.702508 21.09766,-1.931167 42.30364,-4.937119 63.37987,-7.162093 z"
       id="path50"
       style="stroke-width:1.12828" />
    <path
       fill="#2e2e57"
       d="m 223.30612,154.9092 c 53.1509,-1.66421 97.61069,40.02679 99.3629,93.17544 1.75222,53.14753 -39.86545,97.67613 -93.01071,99.51749 -53.2705,1.84472 -97.9266,-39.89252 -99.68221,-93.16529 -1.75673,-53.27389 40.05386,-97.86004 93.33002,-99.52764 z"
       id="path51"
       style="stroke-width:1.12828" />
    <path
       fill="#ffffff"
       d="m 216.39766,164.35515 c 48.02289,-5.48682 91.3781,29.05314 96.76223,77.08731 5.38414,48.03417 -29.24833,91.31603 -77.29378,96.59638 -47.89991,5.26566 -91.02157,-29.23933 -96.38991,-77.12794 -5.36833,-47.88863 29.04412,-91.08473 76.92146,-96.55575 z"
       id="path52"
       style="stroke-width:1.12828" />
    <path
       fill="#2e2e57"
       d="m 222.63704,213.79627 c 20.39814,-1.82893 38.44044,13.16813 40.36979,33.55724 1.93047,20.39024 -12.97859,38.50586 -33.35754,40.53563 -20.52223,2.04445 -38.79358,-12.99099 -40.73646,-33.52225 -1.94291,-20.53239 13.18279,-38.72815 33.72421,-40.57062 z"
       id="path53"
       style="stroke-width:1.12828" />
    <path
       fill="#ffffff"
       d="m 222.27261,223.01205 c 15.32652,-2.12004 29.48529,8.54445 31.67864,23.86082 2.1934,15.31637 -8.4034,29.52589 -23.70849,31.7926 -15.41001,2.28251 -29.73801,-8.40228 -31.94605,-23.82246 -2.20804,-15.42128 8.54445,-29.69739 23.9759,-31.83096 z"
       id="path54"
       style="stroke-width:1.12828" />
  </g>
</svg>
