<?xml version="1.0" encoding="UTF-8" standalone="no"?>
<svg
   width="1024"
   height="1024"
   viewBox="0 0 1024 1024"
   version="1.1"
   id="svg18"
   sodipodi:docname="icon-of-article-introduction-ai-generator.svg"
   inkscape:version="1.4.3 (1:1.4.3+202512261034+0d15f75042)"
   xmlns:inkscape="http://www.inkscape.org/namespaces/inkscape"
   xmlns:sodipodi="http://sodipodi.sourceforge.net/DTD/sodipodi-0.dtd"
   xmlns="http://www.w3.org/2000/svg"
   xmlns:svg="http://www.w3.org/2000/svg">
  <defs
     id="defs18" />
  <sodipodi:namedview
     id="namedview18"
     pagecolor="#ffffff"
     bordercolor="#666666"
     borderopacity="1.0"
     inkscape:showpageshadow="2"
     inkscape:pageopacity="0.0"
     inkscape:pagecheckerboard="0"
     inkscape:deskcolor="#d1d1d1"
     inkscape:zoom="0.78808594"
     inkscape:cx="512"
     inkscape:cy="512"
     inkscape:window-width="1860"
     inkscape:window-height="1016"
     inkscape:window-x="60"
     inkscape:window-y="27"
     inkscape:window-maximized="1"
     inkscape:current-layer="svg18" />
  <g
     id="g18"
     transform="matrix(1.4260548,0,0,1.4260548,-217.791,-218.34784)">
    <path
       d="m 325.106,213.592 c 15.634,-0.7 36.81,-0.086 52.804,-0.084 l 103.522,0.058 307.466,0.01 c 17.448,-0.02 32.434,2.805 45.455,15.967 8.201,8.319 13.603,18.988 15.453,30.522 1.325,8.567 0.738,32.58 0.724,42.133 l -0.008,80.519 0.008,287.418 -0.074,57.22 c -0.088,25.638 3.571,48.756 -15.977,68.103 -19.116,18.919 -39.882,15.287 -64.215,15.313 l -70.139,-0.027 -341.789,-0.126 -90.294,-0.018 -26.652,0.029 c -5.55,0.003 -13.186,0.159 -18.549,-0.574 -14.895,-2.035 -29.541,-10.991 -38.537,-22.959 -4.967,-6.61 -10,-17.622 -10.78,-25.878 -0.952,-10.076 -0.64,-21.651 -0.633,-31.924 l 0.025,-50.331 -0.005,-164.479 -0.024,-109.047 0.012,-30.733 c 0.007,-5.924 -0.214,-15.154 0.606,-20.785 2.929,-3.906 6.505,-7.276 10.109,-10.546 27.627,-25.067 54.931,-50.434 81.889,-76.223 17.54,-16.78 35.499,-33.219 53.271,-49.75 1.995,-1.856 3.863,-2.762 6.332,-3.808 z"
       id="path2" />
    <path
       fill="#ebebeb"
       d="m 523.871,238.982 206.063,-0.322 44.186,0.292 c 19.773,-0.012 42.558,-3.171 50.389,22.148 0.867,2.806 0.842,5.798 0.976,8.697 0.095,13.697 0.05,27.416 0.044,41.113 l -0.072,315.942 0.064,91.071 0.039,26.076 c 0.015,5.354 0.118,11.17 -0.312,16.536 -0.883,11.016 -13.301,23.368 -24.231,24.659 -9.295,1.097 -20.788,0.701 -30.284,0.691 l -54.825,-0.132 -188.658,0.116 c -0.646,-0.004 -1.291,-0.015 -1.937,-0.033 -0.104,-7.132 -0.069,-14.265 0.105,-21.396 14.469,-8.093 23.076,-13.403 32.015,-28.035 0.44,8.472 0.565,16.957 0.373,25.438 l 242.261,0.05 0.4,-155.741 c -8.646,-0.069 -17.293,-0.072 -25.939,-0.011 l -0.046,130.533 c -20.808,1.092 -49.36,0.227 -70.654,0.192 l -134.456,-0.008 -0.079,-201.358 231.13,-0.412 -0.055,-24.874 -136.66,-0.321 c -9.049,-0.781 -27.287,-0.315 -36.872,-0.34 -22.992,-0.136 -45.985,-0.077 -68.976,0.177 0.046,-7.685 0.261,-16.131 -0.132,-23.74 l 107.744,-0.008 0.008,-25.378 c -32.187,-0.032 -64.804,0.552 -96.89,0.244 l -0.046,-24.035 c 31.246,0.073 66.038,0.826 96.987,-0.132 l -10e-4,-25.629 -98.465,0.035 c -0.177,-8.659 -2.626,-15.028 -5.037,-23.313 l 238.301,-0.331 0.021,-25.898 -245.458,0.458 c 0.005,5.425 0.156,11.911 -0.071,17.24 -8.31,-11 -17.344,-19.296 -30.546,-24.337 z"
       id="path3" />
    <path
       d="m 594.059,559.547 c 51.331,-0.666 104.273,-0.319 155.672,-0.192 l 0.102,153.219 c -51.086,0.982 -104.479,0.008 -155.708,-0.133 z"
       id="path4" />
    <path
       fill="#f07368"
       d="m 619.936,585.125 c 34.008,-0.309 70.132,-0.58 104.068,-0.034 0.048,34.062 0.167,68.841 -0.288,102.879 l -104.142,0.032 c -0.185,-16.613 0.223,-33.585 0.276,-50.241 0.055,-17.504 -0.135,-35.154 0.086,-52.636 z"
       id="path5" />
    <path
       d="m 547.682,312.076 252.776,0.416 0.02,25.544 -159.494,-0.053 c -30.859,0.013 -62.361,-0.29 -93.18,0.181 -0.129,-8.696 -0.169,-17.392 -0.122,-26.088 z"
       id="path6" />
    <path
       d="m 547.741,263.583 252.646,-0.059 0.06,25.496 -252.692,-0.115 c -0.085,-8.44 -0.089,-16.881 -0.014,-25.322 z"
       id="path7" />
    <path
       d="m 689.788,411.194 110.456,-0.13 c -0.029,8.579 -10e-4,17.159 0.086,25.738 -4.633,0.196 -9.801,0.158 -14.47,0.092 -31.865,-0.45 -64.103,0.674 -95.929,-0.206 -0.14,-8.497 -0.188,-16.996 -0.143,-25.494 z"
       id="path8" />
    <path
       d="m 689.741,460.498 110.606,0.111 0.005,25.388 c -36.55,0.052 -73.96,0.487 -110.452,-0.06 -0.541,-7.35 -0.2,-17.854 -0.159,-25.439 z"
       id="path9" />
    <path
       d="m 774.369,558.702 26.121,-0.066 -0.005,23.436 c -8.725,-0.016 -17.45,0.013 -26.174,0.087 -0.076,-7.772 0.027,-15.674 0.058,-23.457 z"
       id="path10" />
    <path
       fill="#84f0b9"
       d="m 392.846,375.173 c 11.013,-0.448 21.751,3.508 29.841,10.993 8.188,7.517 12.388,16.819 12.555,27.842 0.285,18.807 0.255,37.699 0.249,56.505 l -0.139,117.517 0.203,79.435 c -0.001,11.831 0.066,23.664 -0.164,35.485 -0.217,11.138 -3.165,19.672 -10.901,27.788 -25.202,26.442 -65.837,11.951 -66.527,-25.627 -8.25,-0.24 -17.171,-0.088 -25.471,-0.099 -0.502,14.679 1.249,18.675 7.491,31.628 -26.052,11.016 -51.2,-17.31 -43.348,-42.423 1.462,-4.677 2.969,-9.123 4.59,-13.739 -18.398,0.222 -36.853,2.764 -48.69,-14.48 -3.171,-5.366 -4.938,-12.051 -4.658,-18.288 0.423,-7.744 3.917,-15 9.707,-20.159 8.369,-7.608 16.59,-8.447 27.29,-7.89 0.112,-8.046 0.065,-16.093 -0.142,-24.137 -14.582,-0.519 -16.135,0.047 -29.631,4.447 -5.432,-6.086 -8.371,-13.523 -8.097,-21.728 0.257,-8.074 3.772,-15.7 9.744,-21.14 8.061,-7.198 17.912,-8.318 28.208,-7.74 l 0.009,-24.822 c -10.654,-0.125 -15.626,0.713 -25.878,2.779 -5.893,-5.418 -9.621,-12.79 -10.492,-20.748 -1.658,-16.047 8.785,-29.877 24.38,-33.323 2.851,-0.631 5.679,-0.831 8.583,-1.073 10.33,15.629 28.045,22.851 46.554,19.894 11.781,-1.881 16.758,-13.667 8.642,-22.662 -4.141,-4.591 -12.387,-1.546 -17.801,-2.082 -24.671,-1.034 -29.922,-33.904 -11.938,-47.37 7.886,-5.906 14.343,-6.895 23.769,-5.776 0.489,4.499 1.39,10.539 5.153,13.582 5.328,4.308 14.612,4.07 19.118,-1.428 4.326,-5.153 1.939,-12.08 2.743,-18.15 2.489,-18.804 16.664,-30.745 35.048,-33.011 z"
       id="path11" />
    <path
       d="m 401.177,517.125 c 14.817,-1.407 17.794,9.943 13.692,21.995 -1.664,4.888 -4.015,8.544 -7.198,12.605 -6.996,8.924 -17.581,14.807 -28.932,15.622 -7.406,0.532 -14.747,-1.414 -21.69,2.319 -8.119,4.43 -11.743,13.09 -7.807,21.727 2.54,5.576 8.526,10.712 6.194,17.291 -1.328,3.743 -4.895,6.104 -8.266,7.748 -12.462,2.963 -19.535,-8.726 -22.741,-19.048 -3.423,-10.755 -2.299,-22.442 3.112,-32.347 6.709,-12.409 20.452,-21.624 34.602,-22.646 6.125,-0.366 12.855,1.065 18.778,-0.864 15.89,-5.176 3.473,-19.43 20.256,-24.402 z"
       id="path12" />
    <path
       d="m 372.36,648.213 c 20.247,-1.937 41.51,12.723 46.93,32.297 0.863,3.117 0.507,7.07 -1.409,9.76 -2.934,5.15 -14.682,8.337 -19.151,3.853 -6.201,-6.221 -3.78,-11.755 -12.223,-17.72 l -0.606,-0.422 c -5.214,-2.903 -10.914,-4.039 -16.736,-2.029 -7.117,2.457 -9.587,6.486 -12.679,12.841 -6.253,4.63 -12.388,4.956 -18.953,0.549 -8.243,-5.624 -2.444,-16.182 2.452,-21.934 8.824,-10.368 18.919,-15.956 32.375,-17.195 z"
       id="path13" />
    <path
       d="m 373.894,435.06 c 11.444,-0.88 18.517,15.273 21.178,24.523 4.233,14.714 -6.453,40.362 -22.3,43.827 -4.713,-1.12 -12.286,-6.632 -13.661,-11.47 -1.975,-6.949 7.933,-10.935 10.394,-17.067 4.319,-9.657 -3.584,-16.262 -6.871,-24.124 -3.456,-8.268 4.625,-13.695 11.26,-15.689 z"
       id="path14" />
    <path
       fill="#ffc637"
       d="m 343.163,238.943 155.185,0.007 c 0.1,37.028 -0.017,74.057 -0.348,111.084 -21.781,0.902 -36.778,9.52 -50.542,26.064 -20.774,-30.862 -67.375,-34.019 -94.243,-9.892 -8.746,7.854 -11.821,13.153 -16.97,23.52 -19.621,-2.651 -36.149,0.722 -50.37,15.82 -11.447,12.153 -14.926,25.823 -14.407,42.254 -7.363,1.667 -12.813,3.175 -19.429,6.984 -13.395,7.688 -23.163,20.408 -27.133,35.333 -3.019,11.512 -2.113,25.851 3.064,36.6 2.255,4.681 5.569,9.904 8.231,14.527 -19.817,21.2 -18.199,51.664 -1.648,74.248 -21.808,28.098 -12.066,67.847 19.602,83.672 5.478,2.737 10.539,4.2 16.365,5.89 0.696,9.164 1.671,16.186 5.515,24.713 6.456,14.136 18.263,25.13 32.824,30.561 16.982,6.428 32.802,4.06 48.865,-3.237 l 5.516,3.371 c 22.217,12.93 50.377,10.332 70.838,-4.684 6.05,-4.44 9.542,-8.523 14.35,-14.155 14.498,17.645 28.557,24.28 50.78,26.987 v 16.96 c -62.222,0.397 -124.446,0.449 -186.668,0.157 l -57.715,0.004 c -9.124,-0.02 -20.735,0.386 -29.53,-0.655 -13.034,-1.8 -25.932,-14.842 -26.993,-27.973 -0.958,-11.863 -0.521,-24.822 -0.523,-36.672 l -0.06,-71.084 0.038,-277.509 c 21.879,-0.722 45.383,0.309 67.447,-0.159 11.425,-0.242 27.043,0.939 37.715,-1.484 9.317,-2.019 17.858,-6.673 24.605,-13.407 19.02,-19.081 15.578,-39.444 15.581,-64.161 z"
       id="path15" />
    <path
       fill="#84f0b9"
       d="m 540.12,705.483 c -0.031,8.886 -3.438,18.096 -9.319,24.775 -6.899,7.744 -16.56,12.472 -26.908,13.171 -15.962,1.007 -30.499,-8.248 -38.077,-22.129 -4.8,-8.793 -4.958,-17.36 -4.976,-27.064 -0.033,-18.015 -0.074,-36.056 -0.077,-54.085 l 0.134,-123.592 0.047,-71.069 c -0.004,-9.276 -0.555,-28.603 0.539,-37.042 1.013,-7.792 4.423,-15.075 9.758,-20.844 20.905,-22.852 58.456,-13.194 67.574,15.905 4.131,13.182 -3.314,28.135 18.711,26.916 l -0.019,36.171 c -0.008,5.805 -0.268,13.812 0.221,19.394 0.393,7.609 0.178,16.055 0.132,23.74 22.991,-0.254 45.984,-0.313 68.976,-0.177 9.585,0.025 27.823,-0.441 36.872,0.34 -11.236,0.447 -25.146,0.07 -36.631,0.051 l -69.526,0.065 c -0.224,13.754 0.157,28.204 0.424,41.961 -8.978,-5.245 -11.117,-7.835 -22.042,-10.687 -9.103,-2.377 -19.407,2.089 -25.839,-1.458 -7.068,-3.51 -4.571,-17.712 -10.63,-20.678 -12.961,-6.344 -23.594,1.843 -19.969,15.777 4.275,16.433 17.244,28.978 33.778,31.926 7.809,1.392 16.798,-3.18 24.423,2.651 4.43,3.283 7.059,7.078 8.402,12.645 3.041,12.61 -19.394,21.529 -3.735,32.564 4.55,3.207 10.213,2.88 15.165,1.575 0.823,12.695 0.479,36.549 0.002,49.408 -9.558,-8.286 -15.104,-13.32 -27.706,-15.977 -21.488,-4.675 -42.323,7.243 -51.146,26.985 -3.038,6.799 -1.754,16.154 6.09,18.842 19.035,6.394 15.256,-16.448 28.509,-21.045 11.055,-3.835 21.478,2.188 25.312,12.752 l 0.222,0.63 c 16.995,2.166 20.285,-2.576 19.542,17.112 -5.945,0.313 -12.249,0.359 -18.233,0.491 z"
       id="path16" />
    <path
       d="m 521.022,432.554 c 5.091,0.25 13.558,3.286 14.74,8.837 1.639,7.705 -7.846,18.411 -11.904,24.964 1.306,3.109 2.63,6.117 4.551,9.051 4.156,6.35 11.952,13.271 8.551,21.693 -1.617,4.008 -5.012,5.956 -8.789,7.563 -11.736,1.57 -22.266,-13.029 -26.376,-22.603 -3.915,-9.12 -3.457,-19.986 0.514,-28.994 3.179,-7.209 11.243,-17.541 18.713,-20.511 z"
       id="path17" />
    <path
       fill="#f07368"
       d="m 317.303,253.85 c 0.983,1.346 0.779,2.855 0.766,4.569 -0.125,16.728 -0.281,33.454 -0.291,50.183 -0.004,5.908 0.225,12.339 -1.258,18.084 -1.163,4.487 -3.511,8.579 -6.799,11.847 -3.629,3.578 -8.178,6.083 -13.142,7.236 -6.5,1.513 -23.386,1.174 -30.721,1.185 -15.393,0.101 -30.787,0.051 -46.179,-0.148 l -0.505,-0.318 c 0.207,-1.282 1.034,-2.026 2.007,-2.944 31.691,-29.911 64.927,-59.385 96.122,-89.694 z"
       id="path18" />
  </g>
</svg>
